<svg width="866" height="310" viewBox="0 0 866 310" fill="none" xmlns="http://www.w3.org/2000/svg">
<rect width="866" height="310" fill="white"/>
<path d="M101.188 132.383H102.688C102.609 133.102 102.404 133.745 102.07 134.312C101.737 134.88 101.266 135.331 100.656 135.664C100.047 135.992 99.2865 136.156 98.375 136.156C97.7083 136.156 97.1016 136.031 96.5547 135.781C96.013 135.531 95.5469 135.177 95.1562 134.719C94.7656 134.255 94.4635 133.701 94.25 133.055C94.0417 132.404 93.9375 131.68 93.9375 130.883V129.75C93.9375 128.953 94.0417 128.232 94.25 127.586C94.4635 126.935 94.7682 126.378 95.1641 125.914C95.5651 125.451 96.0469 125.094 96.6094 124.844C97.1719 124.594 97.8047 124.469 98.5078 124.469C99.3672 124.469 100.094 124.63 100.688 124.953C101.281 125.276 101.742 125.724 102.07 126.297C102.404 126.865 102.609 127.523 102.688 128.273H101.188C101.115 127.742 100.979 127.286 100.781 126.906C100.583 126.521 100.302 126.224 99.9375 126.016C99.5729 125.807 99.0964 125.703 98.5078 125.703C98.0026 125.703 97.5573 125.799 97.1719 125.992C96.7917 126.185 96.4714 126.458 96.2109 126.812C95.9557 127.167 95.763 127.591 95.6328 128.086C95.5026 128.581 95.4375 129.13 95.4375 129.734V130.883C95.4375 131.44 95.4948 131.964 95.6094 132.453C95.7292 132.943 95.9089 133.372 96.1484 133.742C96.388 134.112 96.6927 134.404 97.0625 134.617C97.4323 134.826 97.8698 134.93 98.375 134.93C99.0156 134.93 99.526 134.828 99.9062 134.625C100.286 134.422 100.573 134.13 100.766 133.75C100.964 133.37 101.104 132.914 101.188 132.383ZM104.141 131.867V131.688C104.141 131.078 104.229 130.513 104.406 129.992C104.583 129.466 104.839 129.01 105.172 128.625C105.505 128.234 105.909 127.932 106.383 127.719C106.857 127.5 107.388 127.391 107.977 127.391C108.57 127.391 109.104 127.5 109.578 127.719C110.057 127.932 110.464 128.234 110.797 128.625C111.135 129.01 111.393 129.466 111.57 129.992C111.747 130.513 111.836 131.078 111.836 131.688V131.867C111.836 132.477 111.747 133.042 111.57 133.562C111.393 134.083 111.135 134.539 110.797 134.93C110.464 135.315 110.06 135.617 109.586 135.836C109.117 136.049 108.586 136.156 107.992 136.156C107.398 136.156 106.865 136.049 106.391 135.836C105.917 135.617 105.51 135.315 105.172 134.93C104.839 134.539 104.583 134.083 104.406 133.562C104.229 133.042 104.141 132.477 104.141 131.867ZM105.586 131.688V131.867C105.586 132.289 105.635 132.688 105.734 133.062C105.833 133.432 105.982 133.76 106.18 134.047C106.383 134.333 106.635 134.56 106.938 134.727C107.24 134.888 107.591 134.969 107.992 134.969C108.388 134.969 108.734 134.888 109.031 134.727C109.333 134.56 109.583 134.333 109.781 134.047C109.979 133.76 110.128 133.432 110.227 133.062C110.331 132.688 110.383 132.289 110.383 131.867V131.688C110.383 131.271 110.331 130.878 110.227 130.508C110.128 130.133 109.977 129.802 109.773 129.516C109.576 129.224 109.326 128.995 109.023 128.828C108.727 128.661 108.378 128.578 107.977 128.578C107.581 128.578 107.232 128.661 106.93 128.828C106.633 128.995 106.383 129.224 106.18 129.516C105.982 129.802 105.833 130.133 105.734 130.508C105.635 130.878 105.586 131.271 105.586 131.688ZM115.094 128.875V136H113.648V127.547H115.055L115.094 128.875ZM117.734 127.5L117.727 128.844C117.607 128.818 117.492 128.802 117.383 128.797C117.279 128.786 117.159 128.781 117.023 128.781C116.69 128.781 116.396 128.833 116.141 128.938C115.885 129.042 115.669 129.188 115.492 129.375C115.315 129.562 115.174 129.786 115.07 130.047C114.971 130.302 114.906 130.583 114.875 130.891L114.469 131.125C114.469 130.615 114.518 130.135 114.617 129.688C114.721 129.24 114.88 128.844 115.094 128.5C115.307 128.151 115.578 127.88 115.906 127.688C116.24 127.49 116.635 127.391 117.094 127.391C117.198 127.391 117.318 127.404 117.453 127.43C117.589 127.451 117.682 127.474 117.734 127.5Z" fill="#0E0E0E"/>
<path d="M392.188 132.383H393.688C393.609 133.102 393.404 133.745 393.07 134.312C392.737 134.88 392.266 135.331 391.656 135.664C391.047 135.992 390.286 136.156 389.375 136.156C388.708 136.156 388.102 136.031 387.555 135.781C387.013 135.531 386.547 135.177 386.156 134.719C385.766 134.255 385.464 133.701 385.25 133.055C385.042 132.404 384.938 131.68 384.938 130.883V129.75C384.938 128.953 385.042 128.232 385.25 127.586C385.464 126.935 385.768 126.378 386.164 125.914C386.565 125.451 387.047 125.094 387.609 124.844C388.172 124.594 388.805 124.469 389.508 124.469C390.367 124.469 391.094 124.63 391.688 124.953C392.281 125.276 392.742 125.724 393.07 126.297C393.404 126.865 393.609 127.523 393.688 128.273H392.188C392.115 127.742 391.979 127.286 391.781 126.906C391.583 126.521 391.302 126.224 390.938 126.016C390.573 125.807 390.096 125.703 389.508 125.703C389.003 125.703 388.557 125.799 388.172 125.992C387.792 126.185 387.471 126.458 387.211 126.812C386.956 127.167 386.763 127.591 386.633 128.086C386.503 128.581 386.438 129.13 386.438 129.734V130.883C386.438 131.44 386.495 131.964 386.609 132.453C386.729 132.943 386.909 133.372 387.148 133.742C387.388 134.112 387.693 134.404 388.062 134.617C388.432 134.826 388.87 134.93 389.375 134.93C390.016 134.93 390.526 134.828 390.906 134.625C391.286 134.422 391.573 134.13 391.766 133.75C391.964 133.37 392.104 132.914 392.188 132.383ZM400.508 134.555V130.203C400.508 129.87 400.44 129.581 400.305 129.336C400.174 129.086 399.977 128.893 399.711 128.758C399.445 128.622 399.117 128.555 398.727 128.555C398.362 128.555 398.042 128.617 397.766 128.742C397.495 128.867 397.281 129.031 397.125 129.234C396.974 129.438 396.898 129.656 396.898 129.891H395.453C395.453 129.589 395.531 129.289 395.688 128.992C395.844 128.695 396.068 128.427 396.359 128.188C396.656 127.943 397.01 127.75 397.422 127.609C397.839 127.464 398.302 127.391 398.812 127.391C399.427 127.391 399.969 127.495 400.438 127.703C400.911 127.911 401.281 128.227 401.547 128.648C401.818 129.065 401.953 129.589 401.953 130.219V134.156C401.953 134.438 401.977 134.737 402.023 135.055C402.076 135.372 402.151 135.646 402.25 135.875V136H400.742C400.669 135.833 400.612 135.612 400.57 135.336C400.529 135.055 400.508 134.794 400.508 134.555ZM400.758 130.875L400.773 131.891H399.312C398.901 131.891 398.534 131.924 398.211 131.992C397.888 132.055 397.617 132.151 397.398 132.281C397.18 132.411 397.013 132.576 396.898 132.773C396.784 132.966 396.727 133.193 396.727 133.453C396.727 133.719 396.786 133.961 396.906 134.18C397.026 134.398 397.206 134.573 397.445 134.703C397.69 134.828 397.99 134.891 398.344 134.891C398.786 134.891 399.177 134.797 399.516 134.609C399.854 134.422 400.122 134.193 400.32 133.922C400.523 133.651 400.633 133.388 400.648 133.133L401.266 133.828C401.229 134.047 401.13 134.289 400.969 134.555C400.807 134.82 400.591 135.076 400.32 135.32C400.055 135.56 399.737 135.76 399.367 135.922C399.003 136.078 398.591 136.156 398.133 136.156C397.56 136.156 397.057 136.044 396.625 135.82C396.198 135.596 395.865 135.297 395.625 134.922C395.391 134.542 395.273 134.117 395.273 133.648C395.273 133.195 395.362 132.797 395.539 132.453C395.716 132.104 395.971 131.815 396.305 131.586C396.638 131.352 397.039 131.174 397.508 131.055C397.977 130.935 398.5 130.875 399.078 130.875H400.758ZM409.148 133.758C409.148 133.549 409.102 133.357 409.008 133.18C408.919 132.997 408.734 132.833 408.453 132.688C408.177 132.536 407.76 132.406 407.203 132.297C406.734 132.198 406.31 132.081 405.93 131.945C405.555 131.81 405.234 131.646 404.969 131.453C404.708 131.26 404.508 131.034 404.367 130.773C404.227 130.513 404.156 130.208 404.156 129.859C404.156 129.526 404.229 129.211 404.375 128.914C404.526 128.617 404.737 128.354 405.008 128.125C405.284 127.896 405.615 127.716 406 127.586C406.385 127.456 406.815 127.391 407.289 127.391C407.966 127.391 408.544 127.51 409.023 127.75C409.503 127.99 409.87 128.31 410.125 128.711C410.38 129.107 410.508 129.547 410.508 130.031H409.062C409.062 129.797 408.992 129.57 408.852 129.352C408.716 129.128 408.516 128.943 408.25 128.797C407.99 128.651 407.669 128.578 407.289 128.578C406.888 128.578 406.562 128.641 406.312 128.766C406.068 128.885 405.888 129.039 405.773 129.227C405.664 129.414 405.609 129.612 405.609 129.82C405.609 129.977 405.635 130.117 405.688 130.242C405.745 130.362 405.844 130.474 405.984 130.578C406.125 130.677 406.323 130.771 406.578 130.859C406.833 130.948 407.159 131.036 407.555 131.125C408.247 131.281 408.818 131.469 409.266 131.688C409.714 131.906 410.047 132.174 410.266 132.492C410.484 132.81 410.594 133.195 410.594 133.648C410.594 134.018 410.516 134.357 410.359 134.664C410.208 134.971 409.987 135.237 409.695 135.461C409.409 135.68 409.065 135.852 408.664 135.977C408.268 136.096 407.823 136.156 407.328 136.156C406.583 136.156 405.953 136.023 405.438 135.758C404.922 135.492 404.531 135.148 404.266 134.727C404 134.305 403.867 133.859 403.867 133.391H405.32C405.341 133.786 405.456 134.102 405.664 134.336C405.872 134.565 406.128 134.729 406.43 134.828C406.732 134.922 407.031 134.969 407.328 134.969C407.724 134.969 408.055 134.917 408.32 134.812C408.591 134.708 408.797 134.565 408.938 134.383C409.078 134.201 409.148 133.992 409.148 133.758ZM412.109 131.867V131.688C412.109 131.078 412.198 130.513 412.375 129.992C412.552 129.466 412.807 129.01 413.141 128.625C413.474 128.234 413.878 127.932 414.352 127.719C414.826 127.5 415.357 127.391 415.945 127.391C416.539 127.391 417.073 127.5 417.547 127.719C418.026 127.932 418.432 128.234 418.766 128.625C419.104 129.01 419.362 129.466 419.539 129.992C419.716 130.513 419.805 131.078 419.805 131.688V131.867C419.805 132.477 419.716 133.042 419.539 133.562C419.362 134.083 419.104 134.539 418.766 134.93C418.432 135.315 418.029 135.617 417.555 135.836C417.086 136.049 416.555 136.156 415.961 136.156C415.367 136.156 414.833 136.049 414.359 135.836C413.885 135.617 413.479 135.315 413.141 134.93C412.807 134.539 412.552 134.083 412.375 133.562C412.198 133.042 412.109 132.477 412.109 131.867ZM413.555 131.688V131.867C413.555 132.289 413.604 132.688 413.703 133.062C413.802 133.432 413.951 133.76 414.148 134.047C414.352 134.333 414.604 134.56 414.906 134.727C415.208 134.888 415.56 134.969 415.961 134.969C416.357 134.969 416.703 134.888 417 134.727C417.302 134.56 417.552 134.333 417.75 134.047C417.948 133.76 418.096 133.432 418.195 133.062C418.299 132.688 418.352 132.289 418.352 131.867V131.688C418.352 131.271 418.299 130.878 418.195 130.508C418.096 130.133 417.945 129.802 417.742 129.516C417.544 129.224 417.294 128.995 416.992 128.828C416.695 128.661 416.346 128.578 415.945 128.578C415.549 128.578 415.201 128.661 414.898 128.828C414.602 128.995 414.352 129.224 414.148 129.516C413.951 129.802 413.802 130.133 413.703 130.508C413.604 130.878 413.555 131.271 413.555 131.688ZM426.539 133.758C426.539 133.549 426.492 133.357 426.398 133.18C426.31 132.997 426.125 132.833 425.844 132.688C425.568 132.536 425.151 132.406 424.594 132.297C424.125 132.198 423.701 132.081 423.32 131.945C422.945 131.81 422.625 131.646 422.359 131.453C422.099 131.26 421.898 131.034 421.758 130.773C421.617 130.513 421.547 130.208 421.547 129.859C421.547 129.526 421.62 129.211 421.766 128.914C421.917 128.617 422.128 128.354 422.398 128.125C422.674 127.896 423.005 127.716 423.391 127.586C423.776 127.456 424.206 127.391 424.68 127.391C425.357 127.391 425.935 127.51 426.414 127.75C426.893 127.99 427.26 128.31 427.516 128.711C427.771 129.107 427.898 129.547 427.898 130.031H426.453C426.453 129.797 426.383 129.57 426.242 129.352C426.107 129.128 425.906 128.943 425.641 128.797C425.38 128.651 425.06 128.578 424.68 128.578C424.279 128.578 423.953 128.641 423.703 128.766C423.458 128.885 423.279 129.039 423.164 129.227C423.055 129.414 423 129.612 423 129.82C423 129.977 423.026 130.117 423.078 130.242C423.135 130.362 423.234 130.474 423.375 130.578C423.516 130.677 423.714 130.771 423.969 130.859C424.224 130.948 424.549 131.036 424.945 131.125C425.638 131.281 426.208 131.469 426.656 131.688C427.104 131.906 427.438 132.174 427.656 132.492C427.875 132.81 427.984 133.195 427.984 133.648C427.984 134.018 427.906 134.357 427.75 134.664C427.599 134.971 427.378 135.237 427.086 135.461C426.799 135.68 426.456 135.852 426.055 135.977C425.659 136.096 425.214 136.156 424.719 136.156C423.974 136.156 423.344 136.023 422.828 135.758C422.312 135.492 421.922 135.148 421.656 134.727C421.391 134.305 421.258 133.859 421.258 133.391H422.711C422.732 133.786 422.846 134.102 423.055 134.336C423.263 134.565 423.518 134.729 423.82 134.828C424.122 134.922 424.422 134.969 424.719 134.969C425.115 134.969 425.445 134.917 425.711 134.812C425.982 134.708 426.188 134.565 426.328 134.383C426.469 134.201 426.539 133.992 426.539 133.758ZM439.18 134.359V124H440.633V136H439.305L439.18 134.359ZM433.492 131.867V131.703C433.492 131.057 433.57 130.471 433.727 129.945C433.888 129.414 434.115 128.958 434.406 128.578C434.703 128.198 435.055 127.906 435.461 127.703C435.872 127.495 436.331 127.391 436.836 127.391C437.367 127.391 437.831 127.484 438.227 127.672C438.628 127.854 438.966 128.122 439.242 128.477C439.523 128.826 439.745 129.247 439.906 129.742C440.068 130.237 440.18 130.797 440.242 131.422V132.141C440.185 132.76 440.073 133.318 439.906 133.812C439.745 134.307 439.523 134.729 439.242 135.078C438.966 135.427 438.628 135.695 438.227 135.883C437.826 136.065 437.357 136.156 436.82 136.156C436.326 136.156 435.872 136.049 435.461 135.836C435.055 135.622 434.703 135.323 434.406 134.938C434.115 134.552 433.888 134.099 433.727 133.578C433.57 133.052 433.492 132.482 433.492 131.867ZM434.945 131.703V131.867C434.945 132.289 434.987 132.685 435.07 133.055C435.159 133.424 435.294 133.75 435.477 134.031C435.659 134.312 435.891 134.534 436.172 134.695C436.453 134.852 436.789 134.93 437.18 134.93C437.659 134.93 438.052 134.828 438.359 134.625C438.672 134.422 438.922 134.154 439.109 133.82C439.297 133.487 439.443 133.125 439.547 132.734V130.852C439.484 130.565 439.393 130.289 439.273 130.023C439.159 129.753 439.008 129.513 438.82 129.305C438.638 129.091 438.411 128.922 438.141 128.797C437.875 128.672 437.56 128.609 437.195 128.609C436.799 128.609 436.458 128.693 436.172 128.859C435.891 129.021 435.659 129.245 435.477 129.531C435.294 129.812 435.159 130.141 435.07 130.516C434.987 130.885 434.945 131.281 434.945 131.703ZM446.391 136.156C445.802 136.156 445.268 136.057 444.789 135.859C444.315 135.656 443.906 135.372 443.562 135.008C443.224 134.643 442.964 134.211 442.781 133.711C442.599 133.211 442.508 132.664 442.508 132.07V131.742C442.508 131.055 442.609 130.443 442.812 129.906C443.016 129.365 443.292 128.906 443.641 128.531C443.99 128.156 444.385 127.872 444.828 127.68C445.271 127.487 445.729 127.391 446.203 127.391C446.807 127.391 447.328 127.495 447.766 127.703C448.208 127.911 448.57 128.203 448.852 128.578C449.133 128.948 449.341 129.385 449.477 129.891C449.612 130.391 449.68 130.938 449.68 131.531V132.18H443.367V131H448.234V130.891C448.214 130.516 448.135 130.151 448 129.797C447.87 129.443 447.661 129.151 447.375 128.922C447.089 128.693 446.698 128.578 446.203 128.578C445.875 128.578 445.573 128.648 445.297 128.789C445.021 128.924 444.784 129.128 444.586 129.398C444.388 129.669 444.234 130 444.125 130.391C444.016 130.781 443.961 131.232 443.961 131.742V132.07C443.961 132.471 444.016 132.849 444.125 133.203C444.24 133.552 444.404 133.859 444.617 134.125C444.836 134.391 445.099 134.599 445.406 134.75C445.719 134.901 446.073 134.977 446.469 134.977C446.979 134.977 447.411 134.872 447.766 134.664C448.12 134.456 448.43 134.177 448.695 133.828L449.57 134.523C449.388 134.799 449.156 135.062 448.875 135.312C448.594 135.562 448.247 135.766 447.836 135.922C447.43 136.078 446.948 136.156 446.391 136.156ZM460.508 134.047V127.547H461.961V136H460.578L460.508 134.047ZM460.781 132.266L461.383 132.25C461.383 132.812 461.323 133.333 461.203 133.812C461.089 134.286 460.901 134.698 460.641 135.047C460.38 135.396 460.039 135.669 459.617 135.867C459.195 136.06 458.682 136.156 458.078 136.156C457.667 136.156 457.289 136.096 456.945 135.977C456.607 135.857 456.315 135.672 456.07 135.422C455.826 135.172 455.635 134.846 455.5 134.445C455.37 134.044 455.305 133.562 455.305 133V127.547H456.75V133.016C456.75 133.396 456.792 133.711 456.875 133.961C456.964 134.206 457.081 134.401 457.227 134.547C457.378 134.688 457.544 134.786 457.727 134.844C457.914 134.901 458.107 134.93 458.305 134.93C458.919 134.93 459.406 134.812 459.766 134.578C460.125 134.339 460.383 134.018 460.539 133.617C460.701 133.211 460.781 132.76 460.781 132.266ZM469.086 133.758C469.086 133.549 469.039 133.357 468.945 133.18C468.857 132.997 468.672 132.833 468.391 132.688C468.115 132.536 467.698 132.406 467.141 132.297C466.672 132.198 466.247 132.081 465.867 131.945C465.492 131.81 465.172 131.646 464.906 131.453C464.646 131.26 464.445 131.034 464.305 130.773C464.164 130.513 464.094 130.208 464.094 129.859C464.094 129.526 464.167 129.211 464.312 128.914C464.464 128.617 464.674 128.354 464.945 128.125C465.221 127.896 465.552 127.716 465.938 127.586C466.323 127.456 466.753 127.391 467.227 127.391C467.904 127.391 468.482 127.51 468.961 127.75C469.44 127.99 469.807 128.31 470.062 128.711C470.318 129.107 470.445 129.547 470.445 130.031H469C469 129.797 468.93 129.57 468.789 129.352C468.654 129.128 468.453 128.943 468.188 128.797C467.927 128.651 467.607 128.578 467.227 128.578C466.826 128.578 466.5 128.641 466.25 128.766C466.005 128.885 465.826 129.039 465.711 129.227C465.602 129.414 465.547 129.612 465.547 129.82C465.547 129.977 465.573 130.117 465.625 130.242C465.682 130.362 465.781 130.474 465.922 130.578C466.062 130.677 466.26 130.771 466.516 130.859C466.771 130.948 467.096 131.036 467.492 131.125C468.185 131.281 468.755 131.469 469.203 131.688C469.651 131.906 469.984 132.174 470.203 132.492C470.422 132.81 470.531 133.195 470.531 133.648C470.531 134.018 470.453 134.357 470.297 134.664C470.146 134.971 469.924 135.237 469.633 135.461C469.346 135.68 469.003 135.852 468.602 135.977C468.206 136.096 467.76 136.156 467.266 136.156C466.521 136.156 465.891 136.023 465.375 135.758C464.859 135.492 464.469 135.148 464.203 134.727C463.938 134.305 463.805 133.859 463.805 133.391H465.258C465.279 133.786 465.393 134.102 465.602 134.336C465.81 134.565 466.065 134.729 466.367 134.828C466.669 134.922 466.969 134.969 467.266 134.969C467.661 134.969 467.992 134.917 468.258 134.812C468.529 134.708 468.734 134.565 468.875 134.383C469.016 134.201 469.086 133.992 469.086 133.758ZM472.047 131.867V131.688C472.047 131.078 472.135 130.513 472.312 129.992C472.49 129.466 472.745 129.01 473.078 128.625C473.411 128.234 473.815 127.932 474.289 127.719C474.763 127.5 475.294 127.391 475.883 127.391C476.477 127.391 477.01 127.5 477.484 127.719C477.964 127.932 478.37 128.234 478.703 128.625C479.042 129.01 479.299 129.466 479.477 129.992C479.654 130.513 479.742 131.078 479.742 131.688V131.867C479.742 132.477 479.654 133.042 479.477 133.562C479.299 134.083 479.042 134.539 478.703 134.93C478.37 135.315 477.966 135.617 477.492 135.836C477.023 136.049 476.492 136.156 475.898 136.156C475.305 136.156 474.771 136.049 474.297 135.836C473.823 135.617 473.417 135.315 473.078 134.93C472.745 134.539 472.49 134.083 472.312 133.562C472.135 133.042 472.047 132.477 472.047 131.867ZM473.492 131.688V131.867C473.492 132.289 473.542 132.688 473.641 133.062C473.74 133.432 473.888 133.76 474.086 134.047C474.289 134.333 474.542 134.56 474.844 134.727C475.146 134.888 475.497 134.969 475.898 134.969C476.294 134.969 476.641 134.888 476.938 134.727C477.24 134.56 477.49 134.333 477.688 134.047C477.885 133.76 478.034 133.432 478.133 133.062C478.237 132.688 478.289 132.289 478.289 131.867V131.688C478.289 131.271 478.237 130.878 478.133 130.508C478.034 130.133 477.883 129.802 477.68 129.516C477.482 129.224 477.232 128.995 476.93 128.828C476.633 128.661 476.284 128.578 475.883 128.578C475.487 128.578 475.138 128.661 474.836 128.828C474.539 128.995 474.289 129.224 474.086 129.516C473.888 129.802 473.74 130.133 473.641 130.508C473.542 130.878 473.492 131.271 473.492 131.688Z" fill="#0E0E0E"/>
<path d="M669.75 129.516V130.742H663.594V129.516H669.75ZM663.828 124.625V136H662.32V124.625H663.828ZM671.062 124.625V136H669.562V124.625H671.062ZM677.031 136.156C676.443 136.156 675.909 136.057 675.43 135.859C674.956 135.656 674.547 135.372 674.203 135.008C673.865 134.643 673.604 134.211 673.422 133.711C673.24 133.211 673.148 132.664 673.148 132.07V131.742C673.148 131.055 673.25 130.443 673.453 129.906C673.656 129.365 673.932 128.906 674.281 128.531C674.63 128.156 675.026 127.872 675.469 127.68C675.911 127.487 676.37 127.391 676.844 127.391C677.448 127.391 677.969 127.495 678.406 127.703C678.849 127.911 679.211 128.203 679.492 128.578C679.773 128.948 679.982 129.385 680.117 129.891C680.253 130.391 680.32 130.938 680.32 131.531V132.18H674.008V131H678.875V130.891C678.854 130.516 678.776 130.151 678.641 129.797C678.51 129.443 678.302 129.151 678.016 128.922C677.729 128.693 677.339 128.578 676.844 128.578C676.516 128.578 676.214 128.648 675.938 128.789C675.661 128.924 675.424 129.128 675.227 129.398C675.029 129.669 674.875 130 674.766 130.391C674.656 130.781 674.602 131.232 674.602 131.742V132.07C674.602 132.471 674.656 132.849 674.766 133.203C674.88 133.552 675.044 133.859 675.258 134.125C675.477 134.391 675.74 134.599 676.047 134.75C676.359 134.901 676.714 134.977 677.109 134.977C677.62 134.977 678.052 134.872 678.406 134.664C678.76 134.456 679.07 134.177 679.336 133.828L680.211 134.523C680.029 134.799 679.797 135.062 679.516 135.312C679.234 135.562 678.888 135.766 678.477 135.922C678.07 136.078 677.589 136.156 677.031 136.156ZM682.984 127.547L684.836 130.625L686.711 127.547H688.406L685.641 131.719L688.492 136H686.82L684.867 132.828L682.914 136H681.234L684.078 131.719L681.32 127.547H682.984ZM694.93 134.555V130.203C694.93 129.87 694.862 129.581 694.727 129.336C694.596 129.086 694.398 128.893 694.133 128.758C693.867 128.622 693.539 128.555 693.148 128.555C692.784 128.555 692.464 128.617 692.188 128.742C691.917 128.867 691.703 129.031 691.547 129.234C691.396 129.438 691.32 129.656 691.32 129.891H689.875C689.875 129.589 689.953 129.289 690.109 128.992C690.266 128.695 690.49 128.427 690.781 128.188C691.078 127.943 691.432 127.75 691.844 127.609C692.26 127.464 692.724 127.391 693.234 127.391C693.849 127.391 694.391 127.495 694.859 127.703C695.333 127.911 695.703 128.227 695.969 128.648C696.24 129.065 696.375 129.589 696.375 130.219V134.156C696.375 134.438 696.398 134.737 696.445 135.055C696.497 135.372 696.573 135.646 696.672 135.875V136H695.164C695.091 135.833 695.034 135.612 694.992 135.336C694.951 135.055 694.93 134.794 694.93 134.555ZM695.18 130.875L695.195 131.891H693.734C693.323 131.891 692.956 131.924 692.633 131.992C692.31 132.055 692.039 132.151 691.82 132.281C691.602 132.411 691.435 132.576 691.32 132.773C691.206 132.966 691.148 133.193 691.148 133.453C691.148 133.719 691.208 133.961 691.328 134.18C691.448 134.398 691.628 134.573 691.867 134.703C692.112 134.828 692.411 134.891 692.766 134.891C693.208 134.891 693.599 134.797 693.938 134.609C694.276 134.422 694.544 134.193 694.742 133.922C694.945 133.651 695.055 133.388 695.07 133.133L695.688 133.828C695.651 134.047 695.552 134.289 695.391 134.555C695.229 134.82 695.013 135.076 694.742 135.32C694.477 135.56 694.159 135.76 693.789 135.922C693.424 136.078 693.013 136.156 692.555 136.156C691.982 136.156 691.479 136.044 691.047 135.82C690.62 135.596 690.286 135.297 690.047 134.922C689.812 134.542 689.695 134.117 689.695 133.648C689.695 133.195 689.784 132.797 689.961 132.453C690.138 132.104 690.393 131.815 690.727 131.586C691.06 131.352 691.461 131.174 691.93 131.055C692.398 130.935 692.922 130.875 693.5 130.875H695.18ZM703.977 134.359V124H705.43V136H704.102L703.977 134.359ZM698.289 131.867V131.703C698.289 131.057 698.367 130.471 698.523 129.945C698.685 129.414 698.911 128.958 699.203 128.578C699.5 128.198 699.852 127.906 700.258 127.703C700.669 127.495 701.128 127.391 701.633 127.391C702.164 127.391 702.628 127.484 703.023 127.672C703.424 127.854 703.763 128.122 704.039 128.477C704.32 128.826 704.542 129.247 704.703 129.742C704.865 130.237 704.977 130.797 705.039 131.422V132.141C704.982 132.76 704.87 133.318 704.703 133.812C704.542 134.307 704.32 134.729 704.039 135.078C703.763 135.427 703.424 135.695 703.023 135.883C702.622 136.065 702.154 136.156 701.617 136.156C701.122 136.156 700.669 136.049 700.258 135.836C699.852 135.622 699.5 135.323 699.203 134.938C698.911 134.552 698.685 134.099 698.523 133.578C698.367 133.052 698.289 132.482 698.289 131.867ZM699.742 131.703V131.867C699.742 132.289 699.784 132.685 699.867 133.055C699.956 133.424 700.091 133.75 700.273 134.031C700.456 134.312 700.688 134.534 700.969 134.695C701.25 134.852 701.586 134.93 701.977 134.93C702.456 134.93 702.849 134.828 703.156 134.625C703.469 134.422 703.719 134.154 703.906 133.82C704.094 133.487 704.24 133.125 704.344 132.734V130.852C704.281 130.565 704.19 130.289 704.07 130.023C703.956 129.753 703.805 129.513 703.617 129.305C703.435 129.091 703.208 128.922 702.938 128.797C702.672 128.672 702.357 128.609 701.992 128.609C701.596 128.609 701.255 128.693 700.969 128.859C700.688 129.021 700.456 129.245 700.273 129.531C700.091 129.812 699.956 130.141 699.867 130.516C699.784 130.885 699.742 131.281 699.742 131.703ZM711.188 136.156C710.599 136.156 710.065 136.057 709.586 135.859C709.112 135.656 708.703 135.372 708.359 135.008C708.021 134.643 707.76 134.211 707.578 133.711C707.396 133.211 707.305 132.664 707.305 132.07V131.742C707.305 131.055 707.406 130.443 707.609 129.906C707.812 129.365 708.089 128.906 708.438 128.531C708.786 128.156 709.182 127.872 709.625 127.68C710.068 127.487 710.526 127.391 711 127.391C711.604 127.391 712.125 127.495 712.562 127.703C713.005 127.911 713.367 128.203 713.648 128.578C713.93 128.948 714.138 129.385 714.273 129.891C714.409 130.391 714.477 130.938 714.477 131.531V132.18H708.164V131H713.031V130.891C713.01 130.516 712.932 130.151 712.797 129.797C712.667 129.443 712.458 129.151 712.172 128.922C711.885 128.693 711.495 128.578 711 128.578C710.672 128.578 710.37 128.648 710.094 128.789C709.818 128.924 709.581 129.128 709.383 129.398C709.185 129.669 709.031 130 708.922 130.391C708.812 130.781 708.758 131.232 708.758 131.742V132.07C708.758 132.471 708.812 132.849 708.922 133.203C709.036 133.552 709.201 133.859 709.414 134.125C709.633 134.391 709.896 134.599 710.203 134.75C710.516 134.901 710.87 134.977 711.266 134.977C711.776 134.977 712.208 134.872 712.562 134.664C712.917 134.456 713.227 134.177 713.492 133.828L714.367 134.523C714.185 134.799 713.953 135.062 713.672 135.312C713.391 135.562 713.044 135.766 712.633 135.922C712.227 136.078 711.745 136.156 711.188 136.156ZM719.547 134.969C719.891 134.969 720.208 134.898 720.5 134.758C720.792 134.617 721.031 134.424 721.219 134.18C721.406 133.93 721.513 133.646 721.539 133.328H722.914C722.888 133.828 722.719 134.294 722.406 134.727C722.099 135.154 721.695 135.5 721.195 135.766C720.695 136.026 720.146 136.156 719.547 136.156C718.911 136.156 718.357 136.044 717.883 135.82C717.414 135.596 717.023 135.289 716.711 134.898C716.404 134.508 716.172 134.06 716.016 133.555C715.865 133.044 715.789 132.505 715.789 131.938V131.609C715.789 131.042 715.865 130.505 716.016 130C716.172 129.49 716.404 129.039 716.711 128.648C717.023 128.258 717.414 127.951 717.883 127.727C718.357 127.503 718.911 127.391 719.547 127.391C720.208 127.391 720.786 127.526 721.281 127.797C721.776 128.062 722.164 128.427 722.445 128.891C722.732 129.349 722.888 129.87 722.914 130.453H721.539C721.513 130.104 721.414 129.789 721.242 129.508C721.076 129.227 720.846 129.003 720.555 128.836C720.268 128.664 719.932 128.578 719.547 128.578C719.104 128.578 718.732 128.667 718.43 128.844C718.133 129.016 717.896 129.25 717.719 129.547C717.547 129.839 717.422 130.164 717.344 130.523C717.271 130.878 717.234 131.24 717.234 131.609V131.938C717.234 132.307 717.271 132.672 717.344 133.031C717.417 133.391 717.539 133.716 717.711 134.008C717.888 134.299 718.125 134.534 718.422 134.711C718.724 134.883 719.099 134.969 719.547 134.969ZM726.109 127.547V136H724.656V127.547H726.109ZM724.547 125.305C724.547 125.07 724.617 124.872 724.758 124.711C724.904 124.549 725.117 124.469 725.398 124.469C725.674 124.469 725.885 124.549 726.031 124.711C726.182 124.872 726.258 125.07 726.258 125.305C726.258 125.529 726.182 125.721 726.031 125.883C725.885 126.039 725.674 126.117 725.398 126.117C725.117 126.117 724.904 126.039 724.758 125.883C724.617 125.721 724.547 125.529 724.547 125.305ZM729.867 129.227V136H728.414V127.547H729.789L729.867 129.227ZM729.57 131.453L728.898 131.43C728.904 130.852 728.979 130.318 729.125 129.828C729.271 129.333 729.487 128.904 729.773 128.539C730.06 128.174 730.417 127.893 730.844 127.695C731.271 127.492 731.766 127.391 732.328 127.391C732.724 127.391 733.089 127.448 733.422 127.562C733.755 127.672 734.044 127.846 734.289 128.086C734.534 128.326 734.724 128.633 734.859 129.008C734.995 129.383 735.062 129.836 735.062 130.367V136H733.617V130.438C733.617 129.995 733.542 129.641 733.391 129.375C733.245 129.109 733.036 128.917 732.766 128.797C732.495 128.672 732.177 128.609 731.812 128.609C731.385 128.609 731.029 128.685 730.742 128.836C730.456 128.987 730.227 129.195 730.055 129.461C729.883 129.727 729.758 130.031 729.68 130.375C729.607 130.714 729.57 131.073 729.57 131.453ZM735.047 130.656L734.078 130.953C734.083 130.49 734.159 130.044 734.305 129.617C734.456 129.19 734.672 128.81 734.953 128.477C735.24 128.143 735.591 127.88 736.008 127.688C736.424 127.49 736.901 127.391 737.438 127.391C737.891 127.391 738.292 127.451 738.641 127.57C738.995 127.69 739.292 127.875 739.531 128.125C739.776 128.37 739.961 128.685 740.086 129.07C740.211 129.456 740.273 129.914 740.273 130.445V136H738.82V130.43C738.82 129.956 738.745 129.589 738.594 129.328C738.448 129.062 738.24 128.878 737.969 128.773C737.703 128.664 737.385 128.609 737.016 128.609C736.698 128.609 736.417 128.664 736.172 128.773C735.927 128.883 735.721 129.034 735.555 129.227C735.388 129.414 735.26 129.63 735.172 129.875C735.089 130.12 735.047 130.38 735.047 130.656ZM747.445 134.555V130.203C747.445 129.87 747.378 129.581 747.242 129.336C747.112 129.086 746.914 128.893 746.648 128.758C746.383 128.622 746.055 128.555 745.664 128.555C745.299 128.555 744.979 128.617 744.703 128.742C744.432 128.867 744.219 129.031 744.062 129.234C743.911 129.438 743.836 129.656 743.836 129.891H742.391C742.391 129.589 742.469 129.289 742.625 128.992C742.781 128.695 743.005 128.427 743.297 128.188C743.594 127.943 743.948 127.75 744.359 127.609C744.776 127.464 745.24 127.391 745.75 127.391C746.365 127.391 746.906 127.495 747.375 127.703C747.849 127.911 748.219 128.227 748.484 128.648C748.755 129.065 748.891 129.589 748.891 130.219V134.156C748.891 134.438 748.914 134.737 748.961 135.055C749.013 135.372 749.089 135.646 749.188 135.875V136H747.68C747.607 135.833 747.549 135.612 747.508 135.336C747.466 135.055 747.445 134.794 747.445 134.555ZM747.695 130.875L747.711 131.891H746.25C745.839 131.891 745.471 131.924 745.148 131.992C744.826 132.055 744.555 132.151 744.336 132.281C744.117 132.411 743.951 132.576 743.836 132.773C743.721 132.966 743.664 133.193 743.664 133.453C743.664 133.719 743.724 133.961 743.844 134.18C743.964 134.398 744.143 134.573 744.383 134.703C744.628 134.828 744.927 134.891 745.281 134.891C745.724 134.891 746.115 134.797 746.453 134.609C746.792 134.422 747.06 134.193 747.258 133.922C747.461 133.651 747.57 133.388 747.586 133.133L748.203 133.828C748.167 134.047 748.068 134.289 747.906 134.555C747.745 134.82 747.529 135.076 747.258 135.32C746.992 135.56 746.674 135.76 746.305 135.922C745.94 136.078 745.529 136.156 745.07 136.156C744.497 136.156 743.995 136.044 743.562 135.82C743.135 135.596 742.802 135.297 742.562 134.922C742.328 134.542 742.211 134.117 742.211 133.648C742.211 133.195 742.299 132.797 742.477 132.453C742.654 132.104 742.909 131.815 743.242 131.586C743.576 131.352 743.977 131.174 744.445 131.055C744.914 130.935 745.438 130.875 746.016 130.875H747.695ZM752.734 124V136H751.281V124H752.734Z" fill="#0E0E0E"/>
<line x1="37" y1="169.5" x2="828.003" y2="169.5" stroke="#0E0E0E"/>
<rect x="93.5" y="211.5" width="31" height="31" fill="#0672CB" stroke="#E1E1E1"/>
<path d="M147.84 222.929L144.545 232H143.198L146.992 222.047H147.86L147.84 222.929ZM150.602 232L147.3 222.929L147.279 222.047H148.147L151.955 232H150.602ZM150.431 228.315V229.396H144.839V228.315H150.431ZM158.688 230.961V232H153.309V230.961H158.688ZM158.49 225.499L153.596 232H152.823V231.07L157.684 224.604H158.49V225.499ZM157.93 224.604V225.649H152.878V224.604H157.93ZM164.649 230.291V224.604H165.921V232H164.711L164.649 230.291ZM164.889 228.732L165.415 228.719C165.415 229.211 165.363 229.667 165.258 230.086C165.158 230.501 164.993 230.861 164.766 231.166C164.538 231.471 164.239 231.711 163.87 231.884C163.501 232.052 163.052 232.137 162.523 232.137C162.163 232.137 161.833 232.084 161.532 231.979C161.236 231.875 160.981 231.713 160.767 231.494C160.552 231.275 160.386 230.991 160.268 230.64C160.154 230.289 160.097 229.867 160.097 229.375V224.604H161.361V229.389C161.361 229.721 161.398 229.997 161.471 230.216C161.548 230.43 161.651 230.601 161.778 230.729C161.91 230.852 162.056 230.938 162.216 230.988C162.38 231.038 162.549 231.063 162.722 231.063C163.259 231.063 163.686 230.961 164 230.756C164.314 230.546 164.54 230.266 164.677 229.915C164.818 229.56 164.889 229.165 164.889 228.732ZM169.223 221.5V232H167.951V221.5H169.223ZM179.442 222.033H179.552V223.106H179.442C178.772 223.106 178.212 223.216 177.761 223.435C177.31 223.649 176.952 223.938 176.688 224.303C176.423 224.663 176.232 225.068 176.113 225.52C175.999 225.971 175.942 226.429 175.942 226.894V228.356C175.942 228.799 175.995 229.19 176.1 229.532C176.204 229.869 176.348 230.154 176.53 230.387C176.713 230.619 176.918 230.795 177.146 230.913C177.378 231.032 177.619 231.091 177.87 231.091C178.162 231.091 178.422 231.036 178.649 230.927C178.877 230.813 179.069 230.656 179.224 230.455C179.383 230.25 179.504 230.008 179.586 229.73C179.668 229.452 179.709 229.147 179.709 228.814C179.709 228.518 179.673 228.233 179.6 227.96C179.527 227.682 179.415 227.436 179.265 227.222C179.114 227.003 178.925 226.832 178.697 226.709C178.474 226.581 178.207 226.518 177.897 226.518C177.547 226.518 177.218 226.604 176.913 226.777C176.612 226.946 176.364 227.169 176.168 227.447C175.977 227.721 175.867 228.019 175.84 228.343L175.17 228.336C175.234 227.826 175.352 227.39 175.525 227.03C175.703 226.666 175.922 226.369 176.182 226.142C176.446 225.909 176.74 225.741 177.063 225.636C177.392 225.526 177.738 225.472 178.103 225.472C178.599 225.472 179.028 225.565 179.388 225.752C179.748 225.939 180.044 226.189 180.276 226.504C180.509 226.814 180.68 227.165 180.789 227.557C180.903 227.944 180.96 228.343 180.96 228.753C180.96 229.222 180.894 229.662 180.762 230.072C180.63 230.482 180.431 230.842 180.167 231.152C179.907 231.462 179.586 231.704 179.203 231.877C178.82 232.05 178.376 232.137 177.87 232.137C177.332 232.137 176.863 232.027 176.462 231.809C176.061 231.585 175.728 231.289 175.464 230.92C175.2 230.551 175.001 230.141 174.869 229.689C174.737 229.238 174.671 228.78 174.671 228.315V227.721C174.671 227.019 174.742 226.331 174.883 225.656C175.024 224.982 175.268 224.371 175.614 223.824C175.965 223.277 176.451 222.842 177.07 222.519C177.69 222.195 178.481 222.033 179.442 222.033ZM188.712 226.23V227.748C188.712 228.564 188.639 229.252 188.493 229.812C188.347 230.373 188.138 230.824 187.864 231.166C187.591 231.508 187.26 231.756 186.873 231.911C186.49 232.062 186.057 232.137 185.574 232.137C185.191 232.137 184.838 232.089 184.515 231.993C184.191 231.897 183.899 231.745 183.64 231.535C183.384 231.321 183.166 231.043 182.983 230.701C182.801 230.359 182.662 229.945 182.566 229.457C182.471 228.969 182.423 228.4 182.423 227.748V226.23C182.423 225.415 182.496 224.731 182.642 224.18C182.792 223.628 183.004 223.186 183.277 222.854C183.551 222.516 183.879 222.275 184.262 222.129C184.649 221.983 185.082 221.91 185.561 221.91C185.948 221.91 186.303 221.958 186.627 222.054C186.955 222.145 187.247 222.293 187.502 222.498C187.757 222.699 187.974 222.967 188.151 223.305C188.334 223.637 188.473 224.045 188.568 224.528C188.664 225.011 188.712 225.579 188.712 226.23ZM187.44 227.953V226.019C187.44 225.572 187.413 225.18 187.358 224.843C187.308 224.501 187.233 224.209 187.133 223.968C187.033 223.726 186.905 223.53 186.75 223.38C186.6 223.229 186.424 223.12 186.224 223.052C186.028 222.979 185.807 222.942 185.561 222.942C185.26 222.942 184.993 222.999 184.761 223.113C184.528 223.223 184.332 223.398 184.173 223.64C184.018 223.881 183.899 224.198 183.817 224.59C183.735 224.982 183.694 225.458 183.694 226.019V227.953C183.694 228.4 183.719 228.794 183.77 229.136C183.824 229.478 183.904 229.774 184.009 230.024C184.114 230.271 184.241 230.473 184.392 230.633C184.542 230.792 184.715 230.911 184.911 230.988C185.112 231.061 185.333 231.098 185.574 231.098C185.884 231.098 186.155 231.038 186.388 230.92C186.62 230.801 186.814 230.617 186.969 230.366C187.128 230.111 187.247 229.785 187.324 229.389C187.402 228.988 187.44 228.509 187.44 227.953ZM196.587 226.23V227.748C196.587 228.564 196.514 229.252 196.368 229.812C196.222 230.373 196.013 230.824 195.739 231.166C195.466 231.508 195.135 231.756 194.748 231.911C194.365 232.062 193.932 232.137 193.449 232.137C193.066 232.137 192.713 232.089 192.39 231.993C192.066 231.897 191.774 231.745 191.515 231.535C191.259 231.321 191.041 231.043 190.858 230.701C190.676 230.359 190.537 229.945 190.441 229.457C190.346 228.969 190.298 228.4 190.298 227.748V226.23C190.298 225.415 190.371 224.731 190.517 224.18C190.667 223.628 190.879 223.186 191.152 222.854C191.426 222.516 191.754 222.275 192.137 222.129C192.524 221.983 192.957 221.91 193.436 221.91C193.823 221.91 194.178 221.958 194.502 222.054C194.83 222.145 195.122 222.293 195.377 222.498C195.632 222.699 195.849 222.967 196.026 223.305C196.209 223.637 196.348 224.045 196.443 224.528C196.539 225.011 196.587 225.579 196.587 226.23ZM195.315 227.953V226.019C195.315 225.572 195.288 225.18 195.233 224.843C195.183 224.501 195.108 224.209 195.008 223.968C194.908 223.726 194.78 223.53 194.625 223.38C194.475 223.229 194.299 223.12 194.099 223.052C193.903 222.979 193.682 222.942 193.436 222.942C193.135 222.942 192.868 222.999 192.636 223.113C192.403 223.223 192.207 223.398 192.048 223.64C191.893 223.881 191.774 224.198 191.692 224.59C191.61 224.982 191.569 225.458 191.569 226.019V227.953C191.569 228.4 191.594 228.794 191.645 229.136C191.699 229.478 191.779 229.774 191.884 230.024C191.989 230.271 192.116 230.473 192.267 230.633C192.417 230.792 192.59 230.911 192.786 230.988C192.987 231.061 193.208 231.098 193.449 231.098C193.759 231.098 194.03 231.038 194.263 230.92C194.495 230.801 194.689 230.617 194.844 230.366C195.003 230.111 195.122 229.785 195.199 229.389C195.277 228.988 195.315 228.509 195.315 227.953Z" fill="#0E0E0E"/>
<path d="M386.57 222.047V232H385.251V222.047H386.57ZM390.043 226.183V232H388.778V224.604H389.975L390.043 226.183ZM389.742 228.021L389.216 228.001C389.22 227.495 389.296 227.028 389.441 226.6C389.587 226.167 389.792 225.791 390.057 225.472C390.321 225.153 390.635 224.907 391 224.733C391.369 224.556 391.777 224.467 392.224 224.467C392.588 224.467 392.916 224.517 393.208 224.617C393.5 224.713 393.748 224.868 393.953 225.082C394.163 225.296 394.322 225.574 394.432 225.916C394.541 226.253 394.596 226.666 394.596 227.153V232H393.324V227.14C393.324 226.752 393.267 226.442 393.153 226.21C393.039 225.973 392.873 225.802 392.654 225.697C392.436 225.588 392.167 225.533 391.848 225.533C391.533 225.533 391.246 225.599 390.986 225.731C390.731 225.864 390.51 226.046 390.323 226.278C390.141 226.511 389.997 226.777 389.893 227.078C389.792 227.374 389.742 227.689 389.742 228.021ZM399.613 224.604V225.574H395.614V224.604H399.613ZM396.968 222.806H398.232V230.168C398.232 230.419 398.271 230.608 398.349 230.735C398.426 230.863 398.526 230.947 398.649 230.988C398.772 231.029 398.905 231.05 399.046 231.05C399.151 231.05 399.26 231.041 399.374 231.022C399.493 231 399.581 230.981 399.641 230.968L399.647 232C399.547 232.032 399.415 232.062 399.251 232.089C399.091 232.121 398.898 232.137 398.67 232.137C398.36 232.137 398.075 232.075 397.815 231.952C397.556 231.829 397.348 231.624 397.193 231.337C397.043 231.045 396.968 230.653 396.968 230.161V222.806ZM404.166 232.137C403.651 232.137 403.184 232.05 402.765 231.877C402.35 231.699 401.992 231.451 401.691 231.132C401.395 230.813 401.167 230.435 401.008 229.997C400.848 229.56 400.769 229.081 400.769 228.562V228.274C400.769 227.673 400.857 227.137 401.035 226.668C401.213 226.194 401.454 225.793 401.76 225.465C402.065 225.137 402.411 224.888 402.799 224.72C403.186 224.551 403.587 224.467 404.002 224.467C404.531 224.467 404.986 224.558 405.369 224.74C405.757 224.923 406.073 225.178 406.319 225.506C406.565 225.829 406.748 226.212 406.866 226.654C406.985 227.092 407.044 227.57 407.044 228.09V228.657H401.521V227.625H405.779V227.529C405.761 227.201 405.693 226.882 405.574 226.572C405.46 226.262 405.278 226.007 405.027 225.807C404.777 225.606 404.435 225.506 404.002 225.506C403.715 225.506 403.451 225.567 403.209 225.69C402.967 225.809 402.76 225.987 402.587 226.224C402.414 226.461 402.279 226.75 402.184 227.092C402.088 227.434 402.04 227.828 402.04 228.274V228.562C402.04 228.912 402.088 229.243 402.184 229.553C402.284 229.858 402.427 230.127 402.614 230.359C402.806 230.592 403.036 230.774 403.305 230.906C403.578 231.038 403.888 231.104 404.234 231.104C404.681 231.104 405.059 231.013 405.369 230.831C405.679 230.649 405.95 230.405 406.183 230.1L406.948 230.708C406.789 230.95 406.586 231.18 406.34 231.398C406.094 231.617 405.791 231.795 405.431 231.932C405.075 232.068 404.654 232.137 404.166 232.137ZM409.785 225.766V232H408.521V224.604H409.751L409.785 225.766ZM412.096 224.562L412.089 225.738C411.984 225.715 411.884 225.702 411.788 225.697C411.697 225.688 411.592 225.684 411.474 225.684C411.182 225.684 410.924 225.729 410.701 225.82C410.478 225.911 410.289 226.039 410.134 226.203C409.979 226.367 409.856 226.563 409.765 226.791C409.678 227.014 409.621 227.26 409.594 227.529L409.238 227.734C409.238 227.288 409.282 226.868 409.368 226.477C409.459 226.085 409.598 225.738 409.785 225.438C409.972 225.132 410.209 224.895 410.496 224.727C410.788 224.553 411.134 224.467 411.535 224.467C411.626 224.467 411.731 224.478 411.85 224.501C411.968 224.519 412.05 224.54 412.096 224.562ZM417.353 230.735V226.928C417.353 226.636 417.293 226.383 417.175 226.169C417.061 225.95 416.888 225.782 416.655 225.663C416.423 225.545 416.136 225.485 415.794 225.485C415.475 225.485 415.195 225.54 414.953 225.649C414.716 225.759 414.529 225.902 414.393 226.08C414.26 226.258 414.194 226.449 414.194 226.654H412.93C412.93 226.39 412.998 226.128 413.135 225.868C413.271 225.608 413.467 225.374 413.723 225.164C413.982 224.95 414.292 224.781 414.652 224.658C415.017 224.531 415.423 224.467 415.869 224.467C416.407 224.467 416.881 224.558 417.291 224.74C417.706 224.923 418.029 225.198 418.262 225.567C418.499 225.932 418.617 226.39 418.617 226.941V230.387C418.617 230.633 418.638 230.895 418.679 231.173C418.724 231.451 418.79 231.69 418.877 231.891V232H417.558C417.494 231.854 417.444 231.66 417.407 231.419C417.371 231.173 417.353 230.945 417.353 230.735ZM417.571 227.516L417.585 228.404H416.307C415.947 228.404 415.625 228.434 415.343 228.493C415.06 228.548 414.823 228.632 414.632 228.746C414.44 228.86 414.295 229.004 414.194 229.177C414.094 229.345 414.044 229.544 414.044 229.771C414.044 230.004 414.096 230.216 414.201 230.407C414.306 230.599 414.463 230.751 414.673 230.865C414.887 230.975 415.149 231.029 415.459 231.029C415.846 231.029 416.188 230.947 416.484 230.783C416.781 230.619 417.015 230.419 417.188 230.182C417.366 229.945 417.462 229.715 417.476 229.491L418.016 230.1C417.984 230.291 417.897 230.503 417.756 230.735C417.615 230.968 417.425 231.191 417.188 231.405C416.956 231.615 416.678 231.79 416.354 231.932C416.035 232.068 415.675 232.137 415.274 232.137C414.773 232.137 414.333 232.039 413.955 231.843C413.581 231.647 413.29 231.385 413.08 231.057C412.875 230.724 412.772 230.353 412.772 229.942C412.772 229.546 412.85 229.197 413.005 228.896C413.16 228.591 413.383 228.338 413.675 228.138C413.966 227.933 414.317 227.778 414.728 227.673C415.138 227.568 415.596 227.516 416.102 227.516H417.571ZM423.566 231.098C423.867 231.098 424.145 231.036 424.4 230.913C424.656 230.79 424.865 230.621 425.029 230.407C425.193 230.188 425.287 229.94 425.31 229.662H426.513C426.49 230.1 426.342 230.507 426.068 230.886C425.799 231.259 425.446 231.562 425.009 231.795C424.571 232.023 424.09 232.137 423.566 232.137C423.01 232.137 422.525 232.039 422.11 231.843C421.7 231.647 421.358 231.378 421.085 231.036C420.816 230.694 420.613 230.302 420.477 229.86C420.344 229.414 420.278 228.942 420.278 228.445V228.158C420.278 227.661 420.344 227.192 420.477 226.75C420.613 226.303 420.816 225.909 421.085 225.567C421.358 225.226 421.7 224.957 422.11 224.761C422.525 224.565 423.01 224.467 423.566 224.467C424.145 224.467 424.651 224.585 425.084 224.822C425.517 225.055 425.856 225.374 426.103 225.779C426.353 226.18 426.49 226.636 426.513 227.146H425.31C425.287 226.841 425.2 226.565 425.05 226.319C424.904 226.073 424.703 225.877 424.448 225.731C424.198 225.581 423.904 225.506 423.566 225.506C423.179 225.506 422.853 225.583 422.589 225.738C422.329 225.889 422.122 226.094 421.967 226.354C421.816 226.609 421.707 226.894 421.639 227.208C421.575 227.518 421.543 227.835 421.543 228.158V228.445C421.543 228.769 421.575 229.088 421.639 229.402C421.702 229.717 421.81 230.002 421.96 230.257C422.115 230.512 422.322 230.717 422.582 230.872C422.846 231.022 423.174 231.098 423.566 231.098ZM422.869 232.068H423.778L423.696 232.431C423.961 232.476 424.2 232.586 424.414 232.759C424.633 232.932 424.742 233.217 424.742 233.613C424.742 233.827 424.697 234.021 424.605 234.194C424.519 234.372 424.389 234.522 424.216 234.646C424.043 234.773 423.826 234.871 423.566 234.939C423.311 235.008 423.013 235.042 422.671 235.042L422.623 234.311C422.833 234.311 423.022 234.288 423.19 234.242C423.364 234.197 423.5 234.124 423.601 234.023C423.705 233.923 423.758 233.793 423.758 233.634C423.758 233.483 423.719 233.365 423.642 233.278C423.564 233.192 423.443 233.126 423.279 233.08C423.12 233.039 422.912 233.009 422.657 232.991L422.869 232.068ZM432.296 230.735V226.928C432.296 226.636 432.237 226.383 432.118 226.169C432.004 225.95 431.831 225.782 431.599 225.663C431.366 225.545 431.079 225.485 430.737 225.485C430.418 225.485 430.138 225.54 429.896 225.649C429.66 225.759 429.473 225.902 429.336 226.08C429.204 226.258 429.138 226.449 429.138 226.654H427.873C427.873 226.39 427.941 226.128 428.078 225.868C428.215 225.608 428.411 225.374 428.666 225.164C428.926 224.95 429.236 224.781 429.596 224.658C429.96 224.531 430.366 224.467 430.812 224.467C431.35 224.467 431.824 224.558 432.234 224.74C432.649 224.923 432.973 225.198 433.205 225.567C433.442 225.932 433.561 226.39 433.561 226.941V230.387C433.561 230.633 433.581 230.895 433.622 231.173C433.668 231.451 433.734 231.69 433.82 231.891V232H432.501C432.437 231.854 432.387 231.66 432.351 231.419C432.314 231.173 432.296 230.945 432.296 230.735ZM432.515 227.516L432.528 228.404H431.25C430.89 228.404 430.569 228.434 430.286 228.493C430.004 228.548 429.767 228.632 429.575 228.746C429.384 228.86 429.238 229.004 429.138 229.177C429.037 229.345 428.987 229.544 428.987 229.771C428.987 230.004 429.04 230.216 429.145 230.407C429.249 230.599 429.407 230.751 429.616 230.865C429.83 230.975 430.092 231.029 430.402 231.029C430.79 231.029 431.132 230.947 431.428 230.783C431.724 230.619 431.959 230.419 432.132 230.182C432.31 229.945 432.405 229.715 432.419 229.491L432.959 230.1C432.927 230.291 432.84 230.503 432.699 230.735C432.558 230.968 432.369 231.191 432.132 231.405C431.899 231.615 431.621 231.79 431.298 231.932C430.979 232.068 430.619 232.137 430.218 232.137C429.716 232.137 429.277 232.039 428.898 231.843C428.525 231.647 428.233 231.385 428.023 231.057C427.818 230.724 427.716 230.353 427.716 229.942C427.716 229.546 427.793 229.197 427.948 228.896C428.103 228.591 428.326 228.338 428.618 228.138C428.91 227.933 429.261 227.778 429.671 227.673C430.081 227.568 430.539 227.516 431.045 227.516H432.515ZM432.521 221.637L433.376 221.712C433.376 222.045 433.31 222.336 433.178 222.587C433.046 222.838 432.868 223.031 432.645 223.168C432.426 223.305 432.177 223.373 431.899 223.373C431.667 223.373 431.476 223.341 431.325 223.277C431.175 223.209 431.04 223.134 430.922 223.052C430.803 222.965 430.678 222.89 430.546 222.826C430.418 222.758 430.259 222.724 430.067 222.724C429.876 222.724 429.714 222.797 429.582 222.942C429.454 223.088 429.391 223.268 429.391 223.482L428.536 223.441C428.536 223.109 428.6 222.817 428.728 222.566C428.86 222.311 429.037 222.113 429.261 221.972C429.484 221.826 429.732 221.753 430.006 221.753C430.202 221.753 430.373 221.787 430.519 221.855C430.669 221.919 430.81 221.994 430.942 222.081C431.075 222.163 431.211 222.238 431.353 222.307C431.494 222.37 431.656 222.402 431.838 222.402C432.029 222.402 432.191 222.329 432.323 222.184C432.455 222.033 432.521 221.851 432.521 221.637ZM435.215 228.384V228.227C435.215 227.693 435.292 227.199 435.447 226.743C435.602 226.283 435.826 225.884 436.117 225.547C436.409 225.205 436.762 224.941 437.177 224.754C437.591 224.562 438.056 224.467 438.571 224.467C439.091 224.467 439.558 224.562 439.973 224.754C440.392 224.941 440.747 225.205 441.039 225.547C441.335 225.884 441.561 226.283 441.716 226.743C441.871 227.199 441.948 227.693 441.948 228.227V228.384C441.948 228.917 441.871 229.411 441.716 229.867C441.561 230.323 441.335 230.722 441.039 231.063C440.747 231.401 440.394 231.665 439.979 231.856C439.569 232.043 439.104 232.137 438.585 232.137C438.065 232.137 437.598 232.043 437.184 231.856C436.769 231.665 436.413 231.401 436.117 231.063C435.826 230.722 435.602 230.323 435.447 229.867C435.292 229.411 435.215 228.917 435.215 228.384ZM436.479 228.227V228.384C436.479 228.753 436.523 229.102 436.609 229.43C436.696 229.753 436.826 230.04 436.999 230.291C437.177 230.542 437.398 230.74 437.662 230.886C437.926 231.027 438.234 231.098 438.585 231.098C438.931 231.098 439.234 231.027 439.494 230.886C439.758 230.74 439.977 230.542 440.15 230.291C440.324 230.04 440.453 229.753 440.54 229.43C440.631 229.102 440.677 228.753 440.677 228.384V228.227C440.677 227.862 440.631 227.518 440.54 227.194C440.453 226.866 440.321 226.577 440.144 226.326C439.97 226.071 439.752 225.87 439.487 225.725C439.228 225.579 438.922 225.506 438.571 225.506C438.225 225.506 437.92 225.579 437.655 225.725C437.396 225.87 437.177 226.071 436.999 226.326C436.826 226.577 436.696 226.866 436.609 227.194C436.523 227.518 436.479 227.862 436.479 228.227ZM448.271 226.025V234.844H447V224.604H448.162L448.271 226.025ZM453.255 228.24V228.384C453.255 228.922 453.191 229.421 453.063 229.881C452.936 230.337 452.749 230.733 452.503 231.07C452.261 231.408 451.963 231.67 451.607 231.856C451.252 232.043 450.844 232.137 450.384 232.137C449.914 232.137 449.5 232.059 449.14 231.904C448.78 231.749 448.474 231.524 448.224 231.228C447.973 230.931 447.772 230.576 447.622 230.161C447.476 229.746 447.376 229.279 447.321 228.76V227.994C447.376 227.447 447.479 226.957 447.629 226.524C447.779 226.091 447.978 225.722 448.224 225.417C448.474 225.107 448.777 224.872 449.133 224.713C449.488 224.549 449.898 224.467 450.363 224.467C450.828 224.467 451.241 224.558 451.601 224.74C451.961 224.918 452.264 225.173 452.51 225.506C452.756 225.839 452.94 226.237 453.063 226.702C453.191 227.162 453.255 227.675 453.255 228.24ZM451.983 228.384V228.24C451.983 227.871 451.945 227.525 451.867 227.201C451.79 226.873 451.669 226.586 451.505 226.34C451.345 226.089 451.14 225.893 450.89 225.752C450.639 225.606 450.34 225.533 449.994 225.533C449.675 225.533 449.397 225.588 449.16 225.697C448.928 225.807 448.729 225.955 448.565 226.142C448.401 226.324 448.267 226.534 448.162 226.771C448.062 227.003 447.987 227.244 447.937 227.495V229.266C448.028 229.585 448.155 229.885 448.319 230.168C448.483 230.446 448.702 230.672 448.976 230.845C449.249 231.013 449.593 231.098 450.008 231.098C450.35 231.098 450.644 231.027 450.89 230.886C451.14 230.74 451.345 230.542 451.505 230.291C451.669 230.04 451.79 229.753 451.867 229.43C451.945 229.102 451.983 228.753 451.983 228.384ZM456.133 225.766V232H454.868V224.604H456.099L456.133 225.766ZM458.443 224.562L458.437 225.738C458.332 225.715 458.231 225.702 458.136 225.697C458.045 225.688 457.94 225.684 457.821 225.684C457.53 225.684 457.272 225.729 457.049 225.82C456.826 225.911 456.636 226.039 456.481 226.203C456.326 226.367 456.203 226.563 456.112 226.791C456.026 227.014 455.969 227.26 455.941 227.529L455.586 227.734C455.586 227.288 455.629 226.868 455.716 226.477C455.807 226.085 455.946 225.738 456.133 225.438C456.32 225.132 456.557 224.895 456.844 224.727C457.135 224.553 457.482 224.467 457.883 224.467C457.974 224.467 458.079 224.478 458.197 224.501C458.316 224.519 458.398 224.54 458.443 224.562ZM460.986 224.604V232H459.715V224.604H460.986ZM459.619 222.642C459.619 222.437 459.681 222.263 459.804 222.122C459.931 221.981 460.118 221.91 460.364 221.91C460.606 221.91 460.79 221.981 460.918 222.122C461.05 222.263 461.116 222.437 461.116 222.642C461.116 222.838 461.05 223.006 460.918 223.147C460.79 223.284 460.606 223.353 460.364 223.353C460.118 223.353 459.931 223.284 459.804 223.147C459.681 223.006 459.619 222.838 459.619 222.642ZM464.274 226.073V232H463.003V224.604H464.206L464.274 226.073ZM464.015 228.021L463.427 228.001C463.431 227.495 463.497 227.028 463.625 226.6C463.753 226.167 463.942 225.791 464.192 225.472C464.443 225.153 464.755 224.907 465.129 224.733C465.503 224.556 465.936 224.467 466.428 224.467C466.774 224.467 467.093 224.517 467.385 224.617C467.676 224.713 467.929 224.866 468.144 225.075C468.358 225.285 468.524 225.554 468.643 225.882C468.761 226.21 468.82 226.606 468.82 227.071V232H467.556V227.133C467.556 226.745 467.49 226.436 467.357 226.203C467.23 225.971 467.048 225.802 466.811 225.697C466.574 225.588 466.296 225.533 465.977 225.533C465.603 225.533 465.291 225.599 465.04 225.731C464.789 225.864 464.589 226.046 464.438 226.278C464.288 226.511 464.179 226.777 464.11 227.078C464.047 227.374 464.015 227.689 464.015 228.021ZM468.807 227.324L467.959 227.584C467.964 227.178 468.03 226.789 468.157 226.415C468.289 226.041 468.479 225.709 468.725 225.417C468.975 225.125 469.283 224.895 469.647 224.727C470.012 224.553 470.429 224.467 470.898 224.467C471.295 224.467 471.646 224.519 471.951 224.624C472.261 224.729 472.521 224.891 472.73 225.109C472.945 225.324 473.106 225.599 473.216 225.937C473.325 226.274 473.38 226.675 473.38 227.14V232H472.108V227.126C472.108 226.711 472.042 226.39 471.91 226.162C471.783 225.93 471.6 225.768 471.363 225.677C471.131 225.581 470.853 225.533 470.529 225.533C470.251 225.533 470.005 225.581 469.791 225.677C469.577 225.772 469.397 225.905 469.251 226.073C469.105 226.237 468.993 226.426 468.916 226.641C468.843 226.855 468.807 227.083 468.807 227.324ZM479.655 230.735V226.928C479.655 226.636 479.596 226.383 479.478 226.169C479.364 225.95 479.19 225.782 478.958 225.663C478.726 225.545 478.438 225.485 478.097 225.485C477.778 225.485 477.497 225.54 477.256 225.649C477.019 225.759 476.832 225.902 476.695 226.08C476.563 226.258 476.497 226.449 476.497 226.654H475.232C475.232 226.39 475.301 226.128 475.438 225.868C475.574 225.608 475.77 225.374 476.025 225.164C476.285 224.95 476.595 224.781 476.955 224.658C477.32 224.531 477.725 224.467 478.172 224.467C478.71 224.467 479.184 224.558 479.594 224.74C480.008 224.923 480.332 225.198 480.564 225.567C480.801 225.932 480.92 226.39 480.92 226.941V230.387C480.92 230.633 480.94 230.895 480.981 231.173C481.027 231.451 481.093 231.69 481.18 231.891V232H479.86C479.797 231.854 479.746 231.66 479.71 231.419C479.674 231.173 479.655 230.945 479.655 230.735ZM479.874 227.516L479.888 228.404H478.609C478.249 228.404 477.928 228.434 477.646 228.493C477.363 228.548 477.126 228.632 476.935 228.746C476.743 228.86 476.597 229.004 476.497 229.177C476.397 229.345 476.347 229.544 476.347 229.771C476.347 230.004 476.399 230.216 476.504 230.407C476.609 230.599 476.766 230.751 476.976 230.865C477.19 230.975 477.452 231.029 477.762 231.029C478.149 231.029 478.491 230.947 478.787 230.783C479.083 230.619 479.318 230.419 479.491 230.182C479.669 229.945 479.765 229.715 479.778 229.491L480.318 230.1C480.286 230.291 480.2 230.503 480.059 230.735C479.917 230.968 479.728 231.191 479.491 231.405C479.259 231.615 478.981 231.79 478.657 231.932C478.338 232.068 477.978 232.137 477.577 232.137C477.076 232.137 476.636 232.039 476.258 231.843C475.884 231.647 475.592 231.385 475.383 231.057C475.178 230.724 475.075 230.353 475.075 229.942C475.075 229.546 475.153 229.197 475.308 228.896C475.463 228.591 475.686 228.338 475.978 228.138C476.269 227.933 476.62 227.778 477.03 227.673C477.44 227.568 477.898 227.516 478.404 227.516H479.874ZM477.611 223.51L478.938 221.5H480.462L478.63 223.51H477.611ZM484.174 225.766V232H482.909V224.604H484.14L484.174 225.766ZM486.484 224.562L486.478 225.738C486.373 225.715 486.272 225.702 486.177 225.697C486.086 225.688 485.981 225.684 485.862 225.684C485.571 225.684 485.313 225.729 485.09 225.82C484.867 225.911 484.677 226.039 484.522 226.203C484.368 226.367 484.244 226.563 484.153 226.791C484.067 227.014 484.01 227.26 483.982 227.529L483.627 227.734C483.627 227.288 483.67 226.868 483.757 226.477C483.848 226.085 483.987 225.738 484.174 225.438C484.361 225.132 484.598 224.895 484.885 224.727C485.176 224.553 485.523 224.467 485.924 224.467C486.015 224.467 486.12 224.478 486.238 224.501C486.357 224.519 486.439 224.54 486.484 224.562ZM489.027 224.604V232H487.756V224.604H489.027ZM487.66 222.642C487.66 222.437 487.722 222.263 487.845 222.122C487.972 221.981 488.159 221.91 488.405 221.91C488.647 221.91 488.831 221.981 488.959 222.122C489.091 222.263 489.157 222.437 489.157 222.642C489.157 222.838 489.091 223.006 488.959 223.147C488.831 223.284 488.647 223.353 488.405 223.353C488.159 223.353 487.972 223.284 487.845 223.147C487.722 223.006 487.66 222.838 487.66 222.642ZM495.419 230.735V226.928C495.419 226.636 495.36 226.383 495.241 226.169C495.127 225.95 494.954 225.782 494.722 225.663C494.489 225.545 494.202 225.485 493.86 225.485C493.541 225.485 493.261 225.54 493.02 225.649C492.783 225.759 492.596 225.902 492.459 226.08C492.327 226.258 492.261 226.449 492.261 226.654H490.996C490.996 226.39 491.064 226.128 491.201 225.868C491.338 225.608 491.534 225.374 491.789 225.164C492.049 224.95 492.359 224.781 492.719 224.658C493.083 224.531 493.489 224.467 493.936 224.467C494.473 224.467 494.947 224.558 495.357 224.74C495.772 224.923 496.096 225.198 496.328 225.567C496.565 225.932 496.684 226.39 496.684 226.941V230.387C496.684 230.633 496.704 230.895 496.745 231.173C496.791 231.451 496.857 231.69 496.943 231.891V232H495.624C495.56 231.854 495.51 231.66 495.474 231.419C495.437 231.173 495.419 230.945 495.419 230.735ZM495.638 227.516L495.651 228.404H494.373C494.013 228.404 493.692 228.434 493.409 228.493C493.127 228.548 492.89 228.632 492.698 228.746C492.507 228.86 492.361 229.004 492.261 229.177C492.16 229.345 492.11 229.544 492.11 229.771C492.11 230.004 492.163 230.216 492.268 230.407C492.372 230.599 492.53 230.751 492.739 230.865C492.953 230.975 493.215 231.029 493.525 231.029C493.913 231.029 494.255 230.947 494.551 230.783C494.847 230.619 495.082 230.419 495.255 230.182C495.433 229.945 495.528 229.715 495.542 229.491L496.082 230.1C496.05 230.291 495.964 230.503 495.822 230.735C495.681 230.968 495.492 231.191 495.255 231.405C495.022 231.615 494.744 231.79 494.421 231.932C494.102 232.068 493.742 232.137 493.341 232.137C492.84 232.137 492.4 232.039 492.021 231.843C491.648 231.647 491.356 231.385 491.146 231.057C490.941 230.724 490.839 230.353 490.839 229.942C490.839 229.546 490.916 229.197 491.071 228.896C491.226 228.591 491.45 228.338 491.741 228.138C492.033 227.933 492.384 227.778 492.794 227.673C493.204 227.568 493.662 227.516 494.168 227.516H495.638ZM388.033 257.137C387.518 257.137 387.051 257.05 386.632 256.877C386.217 256.699 385.859 256.451 385.559 256.132C385.262 255.813 385.035 255.435 384.875 254.997C384.715 254.56 384.636 254.081 384.636 253.562V253.274C384.636 252.673 384.725 252.137 384.902 251.668C385.08 251.194 385.322 250.793 385.627 250.465C385.932 250.137 386.279 249.888 386.666 249.72C387.053 249.551 387.454 249.467 387.869 249.467C388.398 249.467 388.854 249.558 389.236 249.74C389.624 249.923 389.94 250.178 390.187 250.506C390.433 250.829 390.615 251.212 390.733 251.654C390.852 252.092 390.911 252.57 390.911 253.09V253.657H385.388V252.625H389.646V252.529C389.628 252.201 389.56 251.882 389.441 251.572C389.327 251.262 389.145 251.007 388.895 250.807C388.644 250.606 388.302 250.506 387.869 250.506C387.582 250.506 387.318 250.567 387.076 250.69C386.835 250.809 386.627 250.987 386.454 251.224C386.281 251.461 386.146 251.75 386.051 252.092C385.955 252.434 385.907 252.828 385.907 253.274V253.562C385.907 253.912 385.955 254.243 386.051 254.553C386.151 254.858 386.295 255.127 386.481 255.359C386.673 255.592 386.903 255.774 387.172 255.906C387.445 256.038 387.755 256.104 388.102 256.104C388.548 256.104 388.926 256.013 389.236 255.831C389.546 255.649 389.817 255.405 390.05 255.1L390.815 255.708C390.656 255.95 390.453 256.18 390.207 256.398C389.961 256.617 389.658 256.795 389.298 256.932C388.942 257.068 388.521 257.137 388.033 257.137ZM397.234 246.5V257H395.963V246.5H397.234ZM400.639 249.604V257H399.367V249.604H400.639ZM399.271 247.642C399.271 247.437 399.333 247.263 399.456 247.122C399.584 246.981 399.771 246.91 400.017 246.91C400.258 246.91 400.443 246.981 400.57 247.122C400.702 247.263 400.769 247.437 400.769 247.642C400.769 247.838 400.702 248.006 400.57 248.147C400.443 248.284 400.258 248.353 400.017 248.353C399.771 248.353 399.584 248.284 399.456 248.147C399.333 248.006 399.271 247.838 399.271 247.642ZM403.934 251.183V257H402.669V249.604H403.865L403.934 251.183ZM403.633 253.021L403.106 253.001C403.111 252.495 403.186 252.028 403.332 251.6C403.478 251.167 403.683 250.791 403.947 250.472C404.212 250.153 404.526 249.907 404.891 249.733C405.26 249.556 405.668 249.467 406.114 249.467C406.479 249.467 406.807 249.517 407.099 249.617C407.39 249.713 407.639 249.868 407.844 250.082C408.053 250.296 408.213 250.574 408.322 250.916C408.432 251.253 408.486 251.666 408.486 252.153V257H407.215V252.14C407.215 251.752 407.158 251.442 407.044 251.21C406.93 250.973 406.764 250.802 406.545 250.697C406.326 250.588 406.057 250.533 405.738 250.533C405.424 250.533 405.137 250.599 404.877 250.731C404.622 250.864 404.401 251.046 404.214 251.278C404.032 251.511 403.888 251.777 403.783 252.078C403.683 252.374 403.633 252.689 403.633 253.021ZM411.679 246.5V257H410.407V246.5H411.679ZM416.197 249.604L412.971 253.056L411.166 254.929L411.063 253.582L412.355 252.037L414.652 249.604H416.197ZM415.042 257L412.403 253.473L413.06 252.345L416.532 257H415.042Z" fill="#0E0E0E"/>
<path d="M662.907 234L664.842 224.047H665.826L663.885 234H662.907ZM665.689 234L667.631 224.047H668.608L666.667 234H665.689ZM669.442 227.841H662.333V226.891H669.442V227.841ZM668.93 231.197H661.813V230.254H668.93V231.197ZM676.702 228.23V229.748C676.702 230.564 676.629 231.252 676.483 231.812C676.338 232.373 676.128 232.824 675.854 233.166C675.581 233.508 675.251 233.756 674.863 233.911C674.48 234.062 674.048 234.137 673.564 234.137C673.182 234.137 672.828 234.089 672.505 233.993C672.181 233.897 671.89 233.745 671.63 233.535C671.375 233.321 671.156 233.043 670.974 232.701C670.791 232.359 670.652 231.945 670.557 231.457C670.461 230.969 670.413 230.4 670.413 229.748V228.23C670.413 227.415 670.486 226.731 670.632 226.18C670.782 225.628 670.994 225.186 671.268 224.854C671.541 224.516 671.869 224.275 672.252 224.129C672.639 223.983 673.072 223.91 673.551 223.91C673.938 223.91 674.294 223.958 674.617 224.054C674.945 224.145 675.237 224.293 675.492 224.498C675.747 224.699 675.964 224.967 676.142 225.305C676.324 225.637 676.463 226.045 676.559 226.528C676.654 227.011 676.702 227.579 676.702 228.23ZM675.431 229.953V228.019C675.431 227.572 675.403 227.18 675.349 226.843C675.299 226.501 675.223 226.209 675.123 225.968C675.023 225.726 674.895 225.53 674.74 225.38C674.59 225.229 674.414 225.12 674.214 225.052C674.018 224.979 673.797 224.942 673.551 224.942C673.25 224.942 672.983 224.999 672.751 225.113C672.519 225.223 672.323 225.398 672.163 225.64C672.008 225.881 671.89 226.198 671.808 226.59C671.726 226.982 671.685 227.458 671.685 228.019V229.953C671.685 230.4 671.71 230.794 671.76 231.136C671.814 231.478 671.894 231.774 671.999 232.024C672.104 232.271 672.231 232.473 672.382 232.633C672.532 232.792 672.705 232.911 672.901 232.988C673.102 233.061 673.323 233.098 673.564 233.098C673.874 233.098 674.146 233.038 674.378 232.92C674.61 232.801 674.804 232.617 674.959 232.366C675.118 232.111 675.237 231.785 675.314 231.389C675.392 230.988 675.431 230.509 675.431 229.953ZM683.183 224.033H683.292V225.106H683.183C682.513 225.106 681.952 225.216 681.501 225.435C681.05 225.649 680.692 225.938 680.428 226.303C680.163 226.663 679.972 227.068 679.854 227.52C679.74 227.971 679.683 228.429 679.683 228.894V230.356C679.683 230.799 679.735 231.19 679.84 231.532C679.945 231.869 680.088 232.154 680.271 232.387C680.453 232.619 680.658 232.795 680.886 232.913C681.118 233.032 681.36 233.091 681.61 233.091C681.902 233.091 682.162 233.036 682.39 232.927C682.618 232.813 682.809 232.656 682.964 232.455C683.123 232.25 683.244 232.008 683.326 231.73C683.408 231.452 683.449 231.147 683.449 230.814C683.449 230.518 683.413 230.233 683.34 229.96C683.267 229.682 683.155 229.436 683.005 229.222C682.854 229.003 682.665 228.832 682.438 228.709C682.214 228.581 681.948 228.518 681.638 228.518C681.287 228.518 680.959 228.604 680.653 228.777C680.353 228.946 680.104 229.169 679.908 229.447C679.717 229.721 679.607 230.019 679.58 230.343L678.91 230.336C678.974 229.826 679.092 229.39 679.266 229.03C679.443 228.666 679.662 228.369 679.922 228.142C680.186 227.909 680.48 227.741 680.804 227.636C681.132 227.526 681.478 227.472 681.843 227.472C682.34 227.472 682.768 227.565 683.128 227.752C683.488 227.939 683.784 228.189 684.017 228.504C684.249 228.814 684.42 229.165 684.529 229.557C684.643 229.944 684.7 230.343 684.7 230.753C684.7 231.222 684.634 231.662 684.502 232.072C684.37 232.482 684.172 232.842 683.907 233.152C683.647 233.462 683.326 233.704 682.943 233.877C682.561 234.05 682.116 234.137 681.61 234.137C681.073 234.137 680.603 234.027 680.202 233.809C679.801 233.585 679.468 233.289 679.204 232.92C678.94 232.551 678.742 232.141 678.609 231.689C678.477 231.238 678.411 230.78 678.411 230.315V229.721C678.411 229.019 678.482 228.331 678.623 227.656C678.764 226.982 679.008 226.371 679.354 225.824C679.705 225.277 680.191 224.842 680.811 224.519C681.43 224.195 682.221 224.033 683.183 224.033ZM692.637 224.047V224.758L688.515 234H687.182L691.297 225.086H685.91V224.047H692.637ZM700.601 232.961V234H694.086V233.091L697.347 229.461C697.748 229.014 698.058 228.636 698.276 228.326C698.5 228.012 698.655 227.731 698.741 227.485C698.832 227.235 698.878 226.979 698.878 226.72C698.878 226.392 698.81 226.095 698.673 225.831C698.541 225.562 698.345 225.348 698.085 225.188C697.825 225.029 697.511 224.949 697.142 224.949C696.7 224.949 696.33 225.036 696.034 225.209C695.743 225.378 695.524 225.615 695.378 225.92C695.232 226.225 695.159 226.576 695.159 226.973H693.895C693.895 226.412 694.018 225.899 694.264 225.435C694.51 224.97 694.874 224.601 695.357 224.327C695.84 224.049 696.435 223.91 697.142 223.91C697.771 223.91 698.308 224.022 698.755 224.245C699.201 224.464 699.543 224.774 699.78 225.175C700.022 225.571 700.143 226.036 700.143 226.569C700.143 226.861 700.092 227.157 699.992 227.458C699.896 227.754 699.762 228.05 699.589 228.347C699.42 228.643 699.222 228.935 698.994 229.222C698.771 229.509 698.532 229.791 698.276 230.069L695.61 232.961H700.601ZM708.291 230.835H709.604C709.535 231.464 709.355 232.027 709.063 232.523C708.772 233.02 708.359 233.414 707.826 233.706C707.293 233.993 706.628 234.137 705.83 234.137C705.247 234.137 704.716 234.027 704.237 233.809C703.763 233.59 703.355 233.28 703.014 232.879C702.672 232.473 702.408 231.988 702.221 231.423C702.038 230.853 701.947 230.22 701.947 229.522V228.531C701.947 227.834 702.038 227.203 702.221 226.638C702.408 226.068 702.674 225.58 703.021 225.175C703.371 224.769 703.793 224.457 704.285 224.238C704.777 224.02 705.331 223.91 705.946 223.91C706.698 223.91 707.334 224.051 707.854 224.334C708.373 224.617 708.776 225.008 709.063 225.51C709.355 226.007 709.535 226.583 709.604 227.239H708.291C708.227 226.774 708.109 226.376 707.936 226.043C707.762 225.706 707.516 225.446 707.197 225.264C706.878 225.081 706.461 224.99 705.946 224.99C705.504 224.99 705.115 225.075 704.777 225.243C704.445 225.412 704.164 225.651 703.937 225.961C703.713 226.271 703.545 226.642 703.431 227.075C703.317 227.508 703.26 227.989 703.26 228.518V229.522C703.26 230.01 703.31 230.468 703.41 230.896C703.515 231.325 703.672 231.701 703.882 232.024C704.091 232.348 704.358 232.603 704.682 232.79C705.005 232.972 705.388 233.063 705.83 233.063C706.391 233.063 706.837 232.975 707.17 232.797C707.503 232.619 707.753 232.364 707.922 232.031C708.095 231.699 708.218 231.3 708.291 230.835ZM714.949 229.345H712.427L712.413 228.285H714.703C715.081 228.285 715.412 228.221 715.694 228.094C715.977 227.966 716.196 227.784 716.351 227.547C716.51 227.305 716.59 227.018 716.59 226.686C716.59 226.321 716.519 226.025 716.378 225.797C716.241 225.564 716.029 225.396 715.742 225.291C715.46 225.182 715.1 225.127 714.662 225.127H712.721V234H711.401V224.047H714.662C715.173 224.047 715.628 224.099 716.029 224.204C716.43 224.304 716.77 224.464 717.048 224.683C717.33 224.897 717.545 225.17 717.69 225.503C717.836 225.836 717.909 226.234 717.909 226.699C717.909 227.109 717.804 227.481 717.595 227.813C717.385 228.142 717.093 228.41 716.72 228.62C716.351 228.83 715.918 228.964 715.421 229.023L714.949 229.345ZM714.888 234H711.907L712.652 232.927H714.888C715.307 232.927 715.662 232.854 715.954 232.708C716.25 232.562 716.476 232.357 716.631 232.093C716.786 231.824 716.863 231.507 716.863 231.143C716.863 230.773 716.797 230.454 716.665 230.186C716.533 229.917 716.326 229.709 716.043 229.563C715.76 229.418 715.396 229.345 714.949 229.345H713.069L713.083 228.285H715.653L715.934 228.668C716.412 228.709 716.818 228.846 717.15 229.078C717.483 229.306 717.736 229.598 717.909 229.953C718.087 230.309 718.176 230.701 718.176 231.129C718.176 231.749 718.039 232.273 717.766 232.701C717.497 233.125 717.116 233.449 716.624 233.672C716.132 233.891 715.553 234 714.888 234Z" fill="#0E0E0E"/>
<path d="M57.625 66.7344H51.1406V65.0938H57.625C58.9792 65.0938 60.0781 64.875 60.9219 64.4375C61.776 63.9896 62.3958 63.3854 62.7812 62.625C63.1771 61.8646 63.375 61.0104 63.375 60.0625C63.375 59.1354 63.1771 58.2812 62.7812 57.5C62.3958 56.7188 61.776 56.0938 60.9219 55.625C60.0781 55.1458 58.9792 54.9062 57.625 54.9062H51.8125V76H49.8906V53.25H57.625C59.2917 53.25 60.6927 53.5365 61.8281 54.1094C62.974 54.6823 63.8385 55.4792 64.4219 56.5C65.0052 57.5208 65.2969 58.6979 65.2969 60.0312C65.2969 61.4271 65.0052 62.6302 64.4219 63.6406C63.8385 64.6406 62.9792 65.4062 61.8438 65.9375C60.7083 66.4688 59.3021 66.7344 57.625 66.7344ZM79.2656 72.9688V64.25C79.2656 63.4479 79.099 62.7552 78.7656 62.1719C78.4323 61.5885 77.9427 61.1406 77.2969 60.8281C76.651 60.5156 75.8542 60.3594 74.9062 60.3594C74.0312 60.3594 73.25 60.5156 72.5625 60.8281C71.8854 61.1302 71.349 61.5417 70.9531 62.0625C70.5677 62.5729 70.375 63.1406 70.375 63.7656L68.5 63.75C68.5 63.1146 68.6562 62.5 68.9688 61.9062C69.2812 61.3125 69.724 60.7812 70.2969 60.3125C70.8698 59.8438 71.5521 59.474 72.3438 59.2031C73.1458 58.9219 74.026 58.7812 74.9844 58.7812C76.1927 58.7812 77.2552 58.9844 78.1719 59.3906C79.099 59.7969 79.8229 60.4062 80.3438 61.2188C80.8646 62.0312 81.125 63.0521 81.125 64.2812V72.4531C81.125 73.0365 81.1667 73.6406 81.25 74.2656C81.3438 74.8906 81.474 75.4062 81.6406 75.8125V76H79.6562C79.5312 75.625 79.4323 75.1562 79.3594 74.5938C79.2969 74.0208 79.2656 73.4792 79.2656 72.9688ZM79.7031 66.1562L79.7344 67.5938H76.0625C75.1042 67.5938 74.2448 67.6823 73.4844 67.8594C72.7344 68.026 72.099 68.276 71.5781 68.6094C71.0573 68.9323 70.6562 69.3229 70.375 69.7812C70.1042 70.2396 69.9688 70.7604 69.9688 71.3438C69.9688 71.9479 70.1198 72.5 70.4219 73C70.7344 73.5 71.1719 73.901 71.7344 74.2031C72.3073 74.4948 72.9844 74.6406 73.7656 74.6406C74.8073 74.6406 75.724 74.4479 76.5156 74.0625C77.3177 73.6771 77.9792 73.1719 78.5 72.5469C79.0208 71.9219 79.3698 71.2396 79.5469 70.5L80.3594 71.5781C80.224 72.099 79.974 72.6354 79.6094 73.1875C79.2552 73.7292 78.7917 74.2396 78.2188 74.7188C77.6458 75.1875 76.9688 75.5729 76.1875 75.875C75.4167 76.1667 74.5417 76.3125 73.5625 76.3125C72.4583 76.3125 71.4948 76.1042 70.6719 75.6875C69.8594 75.2708 69.224 74.7031 68.7656 73.9844C68.3177 73.2552 68.0938 72.4323 68.0938 71.5156C68.0938 70.6823 68.2708 69.9375 68.625 69.2812C68.9792 68.6146 69.4896 68.0521 70.1562 67.5938C70.8333 67.125 71.6458 66.7708 72.5938 66.5312C73.5521 66.2812 74.625 66.1562 75.8125 66.1562H79.7031ZM88.2188 52V76H86.3594V52H88.2188ZM99.8594 76.3125C98.7552 76.3125 97.7396 76.1094 96.8125 75.7031C95.8958 75.2969 95.0938 74.724 94.4062 73.9844C93.7292 73.2448 93.2031 72.3698 92.8281 71.3594C92.4635 70.3385 92.2812 69.224 92.2812 68.0156V67.3438C92.2812 66.0417 92.474 64.8646 92.8594 63.8125C93.2448 62.7604 93.776 61.8594 94.4531 61.1094C95.1302 60.3594 95.901 59.7865 96.7656 59.3906C97.6406 58.9844 98.5573 58.7812 99.5156 58.7812C100.589 58.7812 101.542 58.974 102.375 59.3594C103.208 59.7344 103.906 60.2708 104.469 60.9688C105.042 61.6562 105.474 62.474 105.766 63.4219C106.057 64.3594 106.203 65.3958 106.203 66.5312V67.6719H93.4062V66.0781H104.344V65.8594C104.323 64.9115 104.13 64.026 103.766 63.2031C103.411 62.3698 102.88 61.6927 102.172 61.1719C101.464 60.651 100.578 60.3906 99.5156 60.3906C98.724 60.3906 97.9948 60.5573 97.3281 60.8906C96.6719 61.224 96.1042 61.7031 95.625 62.3281C95.1562 62.9427 94.7917 63.6771 94.5312 64.5312C94.2812 65.375 94.1562 66.3125 94.1562 67.3438V68.0156C94.1562 68.9531 94.2917 69.8281 94.5625 70.6406C94.8438 71.4427 95.2396 72.151 95.75 72.7656C96.2708 73.3802 96.8854 73.8594 97.5938 74.2031C98.3021 74.5469 99.0833 74.7188 99.9375 74.7188C100.938 74.7188 101.823 74.5365 102.594 74.1719C103.365 73.7969 104.057 73.2083 104.672 72.4062L105.844 73.3125C105.479 73.8542 105.021 74.3542 104.469 74.8125C103.927 75.2708 103.276 75.6354 102.516 75.9062C101.755 76.1771 100.87 76.3125 99.8594 76.3125ZM116.281 59.0938V60.625H107.812V59.0938H116.281ZM110.922 54.75H112.781V71.8906C112.781 72.6719 112.885 73.2604 113.094 73.6562C113.302 74.0521 113.573 74.3177 113.906 74.4531C114.24 74.5885 114.599 74.6562 114.984 74.6562C115.266 74.6562 115.536 74.6406 115.797 74.6094C116.057 74.5677 116.292 74.526 116.5 74.4844L116.578 76.0625C116.349 76.1354 116.052 76.1927 115.688 76.2344C115.323 76.2865 114.958 76.3125 114.594 76.3125C113.875 76.3125 113.24 76.1823 112.688 75.9219C112.135 75.651 111.703 75.1927 111.391 74.5469C111.078 73.8906 110.922 73 110.922 71.875V54.75ZM130.484 72.9688V64.25C130.484 63.4479 130.318 62.7552 129.984 62.1719C129.651 61.5885 129.161 61.1406 128.516 60.8281C127.87 60.5156 127.073 60.3594 126.125 60.3594C125.25 60.3594 124.469 60.5156 123.781 60.8281C123.104 61.1302 122.568 61.5417 122.172 62.0625C121.786 62.5729 121.594 63.1406 121.594 63.7656L119.719 63.75C119.719 63.1146 119.875 62.5 120.188 61.9062C120.5 61.3125 120.943 60.7812 121.516 60.3125C122.089 59.8438 122.771 59.474 123.562 59.2031C124.365 58.9219 125.245 58.7812 126.203 58.7812C127.411 58.7812 128.474 58.9844 129.391 59.3906C130.318 59.7969 131.042 60.4062 131.562 61.2188C132.083 62.0312 132.344 63.0521 132.344 64.2812V72.4531C132.344 73.0365 132.385 73.6406 132.469 74.2656C132.562 74.8906 132.693 75.4062 132.859 75.8125V76H130.875C130.75 75.625 130.651 75.1562 130.578 74.5938C130.516 74.0208 130.484 73.4792 130.484 72.9688ZM130.922 66.1562L130.953 67.5938H127.281C126.323 67.5938 125.464 67.6823 124.703 67.8594C123.953 68.026 123.318 68.276 122.797 68.6094C122.276 68.9323 121.875 69.3229 121.594 69.7812C121.323 70.2396 121.188 70.7604 121.188 71.3438C121.188 71.9479 121.339 72.5 121.641 73C121.953 73.5 122.391 73.901 122.953 74.2031C123.526 74.4948 124.203 74.6406 124.984 74.6406C126.026 74.6406 126.943 74.4479 127.734 74.0625C128.536 73.6771 129.198 73.1719 129.719 72.5469C130.24 71.9219 130.589 71.2396 130.766 70.5L131.578 71.5781C131.443 72.099 131.193 72.6354 130.828 73.1875C130.474 73.7292 130.01 74.2396 129.438 74.7188C128.865 75.1875 128.188 75.5729 127.406 75.875C126.635 76.1667 125.76 76.3125 124.781 76.3125C123.677 76.3125 122.714 76.1042 121.891 75.6875C121.078 75.2708 120.443 74.7031 119.984 73.9844C119.536 73.2552 119.312 72.4323 119.312 71.5156C119.312 70.6823 119.49 69.9375 119.844 69.2812C120.198 68.6146 120.708 68.0521 121.375 67.5938C122.052 67.125 122.865 66.7708 123.812 66.5312C124.771 66.2812 125.844 66.1562 127.031 66.1562H130.922ZM147.016 62.3438V82.5H145.141V59.0938H146.891L147.016 62.3438ZM158.766 67.3906V67.7188C158.766 68.9792 158.62 70.1354 158.328 71.1875C158.036 72.2396 157.615 73.151 157.062 73.9219C156.521 74.6823 155.849 75.2708 155.047 75.6875C154.245 76.1042 153.333 76.3125 152.312 76.3125C151.302 76.3125 150.401 76.1562 149.609 75.8438C148.818 75.5312 148.135 75.0885 147.562 74.5156C147 73.9323 146.547 73.2552 146.203 72.4844C145.87 71.7031 145.635 70.849 145.5 69.9219V65.5938C145.656 64.5729 145.911 63.6458 146.266 62.8125C146.62 61.9792 147.073 61.2604 147.625 60.6562C148.188 60.0521 148.854 59.5885 149.625 59.2656C150.396 58.9427 151.276 58.7812 152.266 58.7812C153.297 58.7812 154.214 58.9844 155.016 59.3906C155.828 59.7865 156.51 60.3646 157.062 61.125C157.625 61.875 158.047 62.7812 158.328 63.8438C158.62 64.8958 158.766 66.0781 158.766 67.3906ZM156.891 67.7188V67.3906C156.891 66.401 156.786 65.4844 156.578 64.6406C156.38 63.7969 156.073 63.0625 155.656 62.4375C155.25 61.8021 154.729 61.3073 154.094 60.9531C153.469 60.599 152.724 60.4219 151.859 60.4219C150.964 60.4219 150.198 60.5729 149.562 60.875C148.938 61.1667 148.417 61.5573 148 62.0469C147.583 62.526 147.255 63.0521 147.016 63.625C146.776 64.1979 146.599 64.7604 146.484 65.3125V70.2969C146.682 71.0885 147 71.8229 147.438 72.5C147.875 73.1667 148.458 73.7031 149.188 74.1094C149.927 74.5052 150.828 74.7031 151.891 74.7031C152.745 74.7031 153.484 74.526 154.109 74.1719C154.734 73.8177 155.25 73.3229 155.656 72.6875C156.073 72.0521 156.38 71.3125 156.578 70.4688C156.786 69.625 156.891 68.7083 156.891 67.7188ZM164.781 61.8906V76H162.922V59.0938H164.734L164.781 61.8906ZM170.766 58.9688L170.719 60.6875C170.51 60.6562 170.307 60.6302 170.109 60.6094C169.911 60.5885 169.698 60.5781 169.469 60.5781C168.656 60.5781 167.943 60.7292 167.328 61.0312C166.724 61.3229 166.214 61.7344 165.797 62.2656C165.38 62.7865 165.062 63.401 164.844 64.1094C164.625 64.8073 164.5 65.5573 164.469 66.3594L163.781 66.625C163.781 65.5208 163.896 64.4948 164.125 63.5469C164.354 62.599 164.703 61.7708 165.172 61.0625C165.651 60.3438 166.25 59.7865 166.969 59.3906C167.698 58.9844 168.552 58.7812 169.531 58.7812C169.771 58.7812 170.005 58.8021 170.234 58.8438C170.474 58.875 170.651 58.9167 170.766 58.9688ZM175.781 59.0938V76H173.922V59.0938H175.781ZM173.594 54.2031C173.594 53.849 173.703 53.5521 173.922 53.3125C174.151 53.0625 174.464 52.9375 174.859 52.9375C175.255 52.9375 175.568 53.0625 175.797 53.3125C176.036 53.5521 176.156 53.849 176.156 54.2031C176.156 54.5469 176.036 54.8438 175.797 55.0938C175.568 55.3333 175.255 55.4531 174.859 55.4531C174.464 55.4531 174.151 55.3333 173.922 55.0938C173.703 54.8438 173.594 54.5469 173.594 54.2031ZM182.656 62.5938V76H180.781V59.0938H182.578L182.656 62.5938ZM182.312 66.5L181.406 66.0312C181.469 65.0312 181.656 64.0938 181.969 63.2188C182.292 62.3438 182.74 61.5729 183.312 60.9062C183.885 60.2396 184.573 59.7188 185.375 59.3438C186.177 58.9688 187.089 58.7812 188.109 58.7812C188.932 58.7812 189.677 58.8958 190.344 59.125C191.021 59.3438 191.594 59.6927 192.062 60.1719C192.542 60.6406 192.911 61.2552 193.172 62.0156C193.432 62.776 193.562 63.6875 193.562 64.75V76H191.703V64.8125C191.703 63.6875 191.526 62.8073 191.172 62.1719C190.828 61.5365 190.344 61.0833 189.719 60.8125C189.104 60.5417 188.391 60.4062 187.578 60.4062C186.62 60.4062 185.807 60.6042 185.141 61C184.484 61.3854 183.948 61.8906 183.531 62.5156C183.125 63.1302 182.823 63.7917 182.625 64.5C182.427 65.1979 182.323 65.8646 182.312 66.5ZM193.547 65.0312L192.297 65.0625C192.349 64.2396 192.536 63.4531 192.859 62.7031C193.193 61.9531 193.646 61.2865 194.219 60.7031C194.792 60.1094 195.474 59.6406 196.266 59.2969C197.068 58.9531 197.969 58.7812 198.969 58.7812C199.844 58.7812 200.625 58.901 201.312 59.1406C202 59.3698 202.578 59.7396 203.047 60.25C203.526 60.75 203.891 61.3906 204.141 62.1719C204.391 62.9531 204.516 63.8906 204.516 64.9844V76H202.641V64.9688C202.641 63.7708 202.464 62.8438 202.109 62.1875C201.766 61.5208 201.286 61.0573 200.672 60.7969C200.057 60.5365 199.339 60.4062 198.516 60.4062C197.703 60.4167 196.99 60.5677 196.375 60.8594C195.76 61.1406 195.245 61.5156 194.828 61.9844C194.422 62.4427 194.109 62.9375 193.891 63.4688C193.682 64 193.568 64.5208 193.547 65.0312ZM219.547 72.9688V64.25C219.547 63.4479 219.38 62.7552 219.047 62.1719C218.714 61.5885 218.224 61.1406 217.578 60.8281C216.932 60.5156 216.135 60.3594 215.188 60.3594C214.312 60.3594 213.531 60.5156 212.844 60.8281C212.167 61.1302 211.63 61.5417 211.234 62.0625C210.849 62.5729 210.656 63.1406 210.656 63.7656L208.781 63.75C208.781 63.1146 208.938 62.5 209.25 61.9062C209.562 61.3125 210.005 60.7812 210.578 60.3125C211.151 59.8438 211.833 59.474 212.625 59.2031C213.427 58.9219 214.307 58.7812 215.266 58.7812C216.474 58.7812 217.536 58.9844 218.453 59.3906C219.38 59.7969 220.104 60.4062 220.625 61.2188C221.146 62.0312 221.406 63.0521 221.406 64.2812V72.4531C221.406 73.0365 221.448 73.6406 221.531 74.2656C221.625 74.8906 221.755 75.4062 221.922 75.8125V76H219.938C219.812 75.625 219.714 75.1562 219.641 74.5938C219.578 74.0208 219.547 73.4792 219.547 72.9688ZM219.984 66.1562L220.016 67.5938H216.344C215.385 67.5938 214.526 67.6823 213.766 67.8594C213.016 68.026 212.38 68.276 211.859 68.6094C211.339 68.9323 210.938 69.3229 210.656 69.7812C210.385 70.2396 210.25 70.7604 210.25 71.3438C210.25 71.9479 210.401 72.5 210.703 73C211.016 73.5 211.453 73.901 212.016 74.2031C212.589 74.4948 213.266 74.6406 214.047 74.6406C215.089 74.6406 216.005 74.4479 216.797 74.0625C217.599 73.6771 218.26 73.1719 218.781 72.5469C219.302 71.9219 219.651 71.2396 219.828 70.5L220.641 71.5781C220.505 72.099 220.255 72.6354 219.891 73.1875C219.536 73.7292 219.073 74.2396 218.5 74.7188C217.927 75.1875 217.25 75.5729 216.469 75.875C215.698 76.1667 214.823 76.3125 213.844 76.3125C212.74 76.3125 211.776 76.1042 210.953 75.6875C210.141 75.2708 209.505 74.7031 209.047 73.9844C208.599 73.2552 208.375 72.4323 208.375 71.5156C208.375 70.6823 208.552 69.9375 208.906 69.2812C209.26 68.6146 209.771 68.0521 210.438 67.5938C211.115 67.125 211.927 66.7708 212.875 66.5312C213.833 66.2812 214.906 66.1562 216.094 66.1562H219.984ZM214.766 56.3906L217.75 52.0156H220L216.391 56.3906H214.766ZM228.281 61.8906V76H226.422V59.0938H228.234L228.281 61.8906ZM234.266 58.9688L234.219 60.6875C234.01 60.6562 233.807 60.6302 233.609 60.6094C233.411 60.5885 233.198 60.5781 232.969 60.5781C232.156 60.5781 231.443 60.7292 230.828 61.0312C230.224 61.3229 229.714 61.7344 229.297 62.2656C228.88 62.7865 228.562 63.401 228.344 64.1094C228.125 64.8073 228 65.5573 227.969 66.3594L227.281 66.625C227.281 65.5208 227.396 64.4948 227.625 63.5469C227.854 62.599 228.203 61.7708 228.672 61.0625C229.151 60.3438 229.75 59.7865 230.469 59.3906C231.198 58.9844 232.052 58.7812 233.031 58.7812C233.271 58.7812 233.505 58.8021 233.734 58.8438C233.974 58.875 234.151 58.9167 234.266 58.9688ZM239.281 59.0938V76H237.422V59.0938H239.281ZM237.094 54.2031C237.094 53.849 237.203 53.5521 237.422 53.3125C237.651 53.0625 237.964 52.9375 238.359 52.9375C238.755 52.9375 239.068 53.0625 239.297 53.3125C239.536 53.5521 239.656 53.849 239.656 54.2031C239.656 54.5469 239.536 54.8438 239.297 55.0938C239.068 55.3333 238.755 55.4531 238.359 55.4531C237.964 55.4531 237.651 55.3333 237.422 55.0938C237.203 54.8438 237.094 54.5469 237.094 54.2031ZM254.672 72.9688V64.25C254.672 63.4479 254.505 62.7552 254.172 62.1719C253.839 61.5885 253.349 61.1406 252.703 60.8281C252.057 60.5156 251.26 60.3594 250.312 60.3594C249.438 60.3594 248.656 60.5156 247.969 60.8281C247.292 61.1302 246.755 61.5417 246.359 62.0625C245.974 62.5729 245.781 63.1406 245.781 63.7656L243.906 63.75C243.906 63.1146 244.062 62.5 244.375 61.9062C244.688 61.3125 245.13 60.7812 245.703 60.3125C246.276 59.8438 246.958 59.474 247.75 59.2031C248.552 58.9219 249.432 58.7812 250.391 58.7812C251.599 58.7812 252.661 58.9844 253.578 59.3906C254.505 59.7969 255.229 60.4062 255.75 61.2188C256.271 62.0312 256.531 63.0521 256.531 64.2812V72.4531C256.531 73.0365 256.573 73.6406 256.656 74.2656C256.75 74.8906 256.88 75.4062 257.047 75.8125V76H255.062C254.938 75.625 254.839 75.1562 254.766 74.5938C254.703 74.0208 254.672 73.4792 254.672 72.9688ZM255.109 66.1562L255.141 67.5938H251.469C250.51 67.5938 249.651 67.6823 248.891 67.8594C248.141 68.026 247.505 68.276 246.984 68.6094C246.464 68.9323 246.062 69.3229 245.781 69.7812C245.51 70.2396 245.375 70.7604 245.375 71.3438C245.375 71.9479 245.526 72.5 245.828 73C246.141 73.5 246.578 73.901 247.141 74.2031C247.714 74.4948 248.391 74.6406 249.172 74.6406C250.214 74.6406 251.13 74.4479 251.922 74.0625C252.724 73.6771 253.385 73.1719 253.906 72.5469C254.427 71.9219 254.776 71.2396 254.953 70.5L255.766 71.5781C255.63 72.099 255.38 72.6354 255.016 73.1875C254.661 73.7292 254.198 74.2396 253.625 74.7188C253.052 75.1875 252.375 75.5729 251.594 75.875C250.823 76.1667 249.948 76.3125 248.969 76.3125C247.865 76.3125 246.901 76.1042 246.078 75.6875C245.266 75.2708 244.63 74.7031 244.172 73.9844C243.724 73.2552 243.5 72.4323 243.5 71.5156C243.5 70.6823 243.677 69.9375 244.031 69.2812C244.385 68.6146 244.896 68.0521 245.562 67.5938C246.24 67.125 247.052 66.7708 248 66.5312C248.958 66.2812 250.031 66.1562 251.219 66.1562H255.109Z" fill="#0E0E0E"/>
</svg>
