<svg width="1023" height="431" viewBox="0 0 1023 431" fill="none" xmlns="http://www.w3.org/2000/svg">
<path d="M99.543 355.575H1015.34" stroke="black"/>
<path d="M175.859 368.505V355.575" stroke="black"/>
<path d="M175.859 398.985C175.217 398.985 174.67 398.81 174.219 398.461C173.767 398.108 173.422 397.598 173.183 396.931C172.944 396.26 172.825 395.451 172.825 394.502C172.825 393.559 172.944 392.753 173.183 392.086C173.424 391.415 173.771 390.904 174.223 390.552C174.677 390.197 175.223 390.019 175.859 390.019C176.496 390.019 177.04 390.197 177.491 390.552C177.946 390.904 178.292 391.415 178.531 392.086C178.772 392.753 178.893 393.559 178.893 394.502C178.893 395.451 178.774 396.26 178.535 396.931C178.297 397.598 177.951 398.108 177.5 398.461C177.048 398.81 176.501 398.985 175.859 398.985ZM175.859 398.047C176.496 398.047 176.99 397.741 177.342 397.127C177.694 396.513 177.871 395.638 177.871 394.502C177.871 393.746 177.79 393.103 177.628 392.572C177.469 392.04 177.238 391.635 176.937 391.357C176.639 391.079 176.28 390.939 175.859 390.939C175.228 390.939 174.736 391.25 174.38 391.873C174.025 392.492 173.848 393.368 173.848 394.502C173.848 395.258 173.927 395.9 174.086 396.428C174.246 396.956 174.474 397.358 174.772 397.634C175.074 397.91 175.436 398.047 175.859 398.047Z" fill="black"/>
<path d="M328.493 368.505V355.575" stroke="black"/>
<path d="M329.675 390.138V398.866H328.618V391.246H328.567L326.437 392.661V391.587L328.618 390.138H329.675Z" fill="black"/>
<path d="M481.126 368.505V355.575" stroke="black"/>
<path d="M478.396 398.866V398.098L481.277 394.945C481.615 394.576 481.894 394.255 482.112 393.982C482.331 393.706 482.493 393.448 482.598 393.206C482.706 392.962 482.76 392.706 482.76 392.439C482.76 392.133 482.686 391.867 482.538 391.643C482.394 391.418 482.195 391.245 481.942 391.123C481.689 391 481.405 390.939 481.09 390.939C480.754 390.939 480.462 391.009 480.212 391.148C479.965 391.285 479.773 391.476 479.636 391.723C479.503 391.971 479.436 392.26 479.436 392.593H478.43C478.43 392.081 478.548 391.633 478.784 391.246C479.02 390.86 479.341 390.559 479.747 390.343C480.156 390.127 480.615 390.019 481.124 390.019C481.635 390.019 482.088 390.127 482.483 390.343C482.878 390.559 483.188 390.85 483.412 391.216C483.636 391.583 483.749 391.991 483.749 392.439C483.749 392.76 483.69 393.074 483.574 393.381C483.46 393.685 483.261 394.025 482.977 394.4C482.696 394.772 482.305 395.226 481.805 395.763L479.845 397.86V397.928H483.902V398.866H478.396Z" fill="black"/>
<path d="M633.759 368.505V355.575" stroke="black"/>
<path d="M633.791 398.985C633.228 398.985 632.727 398.888 632.286 398.695C631.849 398.502 631.501 398.233 631.242 397.89C630.987 397.543 630.847 397.141 630.825 396.684H631.898C631.921 396.965 632.018 397.208 632.188 397.412C632.359 397.614 632.582 397.77 632.857 397.881C633.133 397.992 633.438 398.047 633.773 398.047C634.148 398.047 634.481 397.982 634.771 397.851C635.06 397.721 635.288 397.539 635.452 397.306C635.617 397.073 635.7 396.803 635.7 396.496C635.7 396.175 635.62 395.893 635.461 395.648C635.302 395.401 635.069 395.208 634.762 395.069C634.455 394.929 634.08 394.86 633.637 394.86H632.938V393.922H633.637C633.984 393.922 634.288 393.86 634.549 393.735C634.813 393.61 635.019 393.434 635.167 393.206C635.318 392.979 635.393 392.712 635.393 392.405C635.393 392.11 635.327 391.853 635.197 391.634C635.066 391.415 634.881 391.245 634.643 391.123C634.407 391 634.129 390.939 633.808 390.939C633.506 390.939 633.222 390.995 632.955 391.106C632.691 391.214 632.475 391.371 632.308 391.579C632.14 391.783 632.049 392.03 632.035 392.32H631.012C631.029 391.863 631.167 391.462 631.425 391.118C631.684 390.772 632.022 390.502 632.44 390.309C632.86 390.116 633.322 390.019 633.825 390.019C634.364 390.019 634.827 390.128 635.214 390.347C635.6 390.563 635.897 390.848 636.104 391.204C636.312 391.559 636.416 391.942 636.416 392.354C636.416 392.846 636.286 393.265 636.028 393.611C635.772 393.958 635.424 394.198 634.984 394.331V394.4C635.535 394.491 635.965 394.725 636.275 395.103C636.585 395.478 636.739 395.942 636.739 396.496C636.739 396.971 636.61 397.397 636.352 397.775C636.096 398.15 635.746 398.445 635.303 398.661C634.86 398.877 634.356 398.985 633.791 398.985Z" fill="black"/>
<path d="M786.393 368.505V355.575" stroke="black"/>
<path d="M783.242 397.076V396.206L787.077 390.138H787.708V391.485H787.281L784.384 396.07V396.138H789.548V397.076H783.242ZM787.35 398.866V396.812V396.407V390.138H788.355V398.866H787.35Z" fill="black"/>
<path d="M939.025 368.505V355.575" stroke="black"/>
<path d="M939.006 398.985C938.506 398.985 938.056 398.885 937.656 398.687C937.255 398.488 936.934 398.215 936.693 397.868C936.451 397.522 936.319 397.127 936.296 396.684H937.319C937.359 397.079 937.538 397.405 937.856 397.664C938.177 397.92 938.56 398.047 939.006 398.047C939.364 398.047 939.683 397.964 939.961 397.796C940.242 397.628 940.462 397.398 940.621 397.106C940.783 396.81 940.864 396.476 940.864 396.104C940.864 395.723 940.781 395.384 940.613 395.086C940.448 394.785 940.221 394.547 939.931 394.374C939.641 394.201 939.31 394.113 938.938 394.11C938.671 394.107 938.397 394.148 938.116 394.233C937.835 394.316 937.603 394.422 937.421 394.553L936.433 394.434L936.961 390.138H941.495V391.076H937.847L937.541 393.65H937.592C937.771 393.508 937.995 393.39 938.265 393.296C938.535 393.202 938.816 393.155 939.109 393.155C939.643 393.155 940.119 393.283 940.536 393.539C940.957 393.792 941.286 394.138 941.525 394.579C941.766 395.019 941.887 395.522 941.887 396.087C941.887 396.644 941.762 397.141 941.512 397.579C941.265 398.013 940.924 398.357 940.489 398.61C940.055 398.86 939.56 398.985 939.006 398.985Z" fill="black"/>
<path d="M99.5439 10.775V355.575" stroke="black"/>
<path d="M90.3545 355.575H99.5431" stroke="black"/>
<path d="M78.9478 351.015C78.3057 351.015 77.7589 350.84 77.3072 350.49C76.8555 350.138 76.5103 349.628 76.2717 348.961C76.033 348.29 75.9137 347.481 75.9137 346.532C75.9137 345.589 76.033 344.783 76.2717 344.115C76.5131 343.445 76.8597 342.934 77.3114 342.581C77.766 342.226 78.3114 342.049 78.9478 342.049C79.5842 342.049 80.1282 342.226 80.5799 342.581C81.0344 342.934 81.381 343.445 81.6197 344.115C81.8611 344.783 81.9819 345.589 81.9819 346.532C81.9819 347.481 81.8626 348.29 81.6239 348.961C81.3853 349.628 81.0401 350.138 80.5884 350.49C80.1367 350.84 79.5898 351.015 78.9478 351.015ZM78.9478 350.077C79.5842 350.077 80.0785 349.77 80.4307 349.157C80.783 348.543 80.9592 347.668 80.9592 346.532C80.9592 345.776 80.8782 345.133 80.7163 344.601C80.5572 344.07 80.327 343.665 80.0259 343.387C79.7276 343.108 79.3682 342.969 78.9478 342.969C78.3171 342.969 77.8242 343.28 77.4691 343.902C77.114 344.522 76.9364 345.398 76.9364 346.532C76.9364 347.287 77.016 347.929 77.1751 348.458C77.3342 348.986 77.5628 349.388 77.8611 349.664C78.1623 349.939 78.5245 350.077 78.9478 350.077Z" fill="black"/>
<path d="M90.3545 269.375H99.5431" stroke="black"/>
<path d="M76.3356 264.695V263.928L79.2163 260.775C79.5543 260.406 79.8327 260.085 80.0515 259.812C80.2702 259.536 80.4322 259.278 80.5373 259.036C80.6452 258.792 80.6992 258.536 80.6992 258.269C80.6992 257.962 80.6253 257.697 80.4776 257.472C80.3327 257.248 80.1339 257.075 79.881 256.952C79.6282 256.83 79.3441 256.769 79.0288 256.769C78.6935 256.769 78.4009 256.839 78.1509 256.978C77.9038 257.114 77.712 257.306 77.5756 257.553C77.4421 257.8 77.3753 258.09 77.3753 258.423H76.3697C76.3697 257.911 76.4876 257.462 76.7234 257.076C76.9592 256.69 77.2802 256.388 77.6864 256.173C78.0955 255.957 78.5543 255.849 79.0628 255.849C79.5742 255.849 80.0273 255.957 80.4222 256.173C80.8171 256.388 81.1268 256.68 81.3512 257.046C81.5756 257.413 81.6878 257.82 81.6878 258.269C81.6878 258.59 81.6296 258.904 81.5131 259.211C81.3995 259.515 81.2006 259.854 80.9165 260.229C80.6353 260.602 80.2447 261.056 79.7447 261.593L77.7844 263.69V263.758H81.8413V264.695H76.3356Z" fill="black"/>
<path d="M90.3545 183.175H99.5431" stroke="black"/>
<path d="M75.6974 176.706V175.836L79.5327 169.768H80.1633V171.115H79.7372L76.8395 175.7V175.768H82.0042V176.706H75.6974ZM79.8054 178.495V176.441V176.037V169.768H80.8111V178.495H79.8054Z" fill="black"/>
<path d="M90.3545 96.975H99.5431" stroke="black"/>
<path d="M79.0106 92.4146C78.6527 92.4089 78.2947 92.3407 77.9368 92.2101C77.5788 92.0794 77.2521 91.8592 76.9567 91.5495C76.6612 91.237 76.424 90.8152 76.245 90.2839C76.066 89.7498 75.9766 89.0794 75.9766 88.2726C75.9766 87.4998 76.049 86.8152 76.1939 86.2186C76.3388 85.6192 76.549 85.1149 76.8246 84.7058C77.1001 84.2939 77.4325 83.9814 77.8217 83.7683C78.2138 83.5552 78.6555 83.4487 79.147 83.4487C79.6356 83.4487 80.0703 83.5467 80.451 83.7427C80.8345 83.9359 81.147 84.2058 81.3885 84.5524C81.63 84.899 81.7862 85.2981 81.8572 85.7498H80.8175C80.7209 85.3578 80.5334 85.0325 80.255 84.774C79.9766 84.5155 79.6072 84.3862 79.147 84.3862C78.4709 84.3862 77.9382 84.6802 77.549 85.2683C77.1626 85.8564 76.968 86.6817 76.9652 87.7442H77.0334C77.1925 87.5027 77.3814 87.2967 77.6001 87.1263C77.8217 86.953 78.066 86.8194 78.3331 86.7257C78.6001 86.6319 78.8828 86.5851 79.1811 86.5851C79.6811 86.5851 80.1385 86.7101 80.5533 86.9601C80.968 87.2072 81.3004 87.5495 81.5504 87.987C81.8004 88.4217 81.9254 88.9203 81.9254 89.4828C81.9254 90.0226 81.8047 90.5169 81.5632 90.9657C81.3217 91.4118 80.9822 91.7669 80.5447 92.0311C80.1101 92.2924 79.5987 92.4203 79.0106 92.4146ZM79.0106 91.4771C79.3686 91.4771 79.6896 91.3876 79.9737 91.2086C80.2606 91.0297 80.4865 90.7896 80.6513 90.4885C80.8189 90.1873 80.9027 89.8521 80.9027 89.4828C80.9027 89.122 80.8217 88.7939 80.6598 88.4984C80.5007 88.2001 80.2805 87.9629 79.9993 87.7868C79.7209 87.6106 79.4027 87.5226 79.0447 87.5226C78.7748 87.5226 78.5234 87.5765 78.2905 87.6845C78.0575 87.7896 77.853 87.9345 77.6768 88.1192C77.5035 88.3038 77.3672 88.5155 77.2677 88.7541C77.1683 88.9899 77.1186 89.2385 77.1186 89.4998C77.1186 89.8464 77.1996 90.1703 77.3615 90.4714C77.5263 90.7726 77.7507 91.0155 78.0348 91.2001C78.3217 91.3848 78.647 91.4771 79.0106 91.4771Z" fill="black"/>
<path d="M90.3545 10.775H99.5431" stroke="black"/>
<path d="M79.0021 15.2562C78.4169 15.2562 77.8998 15.1525 77.451 14.9451C77.005 14.7349 76.6569 14.4465 76.4069 14.08C76.1569 13.7107 76.0334 13.2902 76.0362 12.8187C76.0334 12.4493 76.1058 12.1084 76.2535 11.7959C76.4013 11.4806 76.603 11.2178 76.8587 11.0076C77.1172 10.7945 77.4055 10.6596 77.7237 10.6027V10.5516C77.3061 10.4437 76.9737 10.2093 76.7266 9.84849C76.4794 9.48485 76.3572 9.0715 76.3601 8.60843C76.3572 8.16525 76.4694 7.76894 76.6967 7.41951C76.924 7.07008 77.2365 6.79451 77.6342 6.59281C78.0348 6.3911 78.4908 6.29025 79.0021 6.29025C79.5078 6.29025 79.9595 6.3911 80.3572 6.59281C80.755 6.79451 81.0675 7.07008 81.2947 7.41951C81.5248 7.76894 81.6413 8.16525 81.6442 8.60843C81.6413 9.0715 81.5149 9.48485 81.2649 9.84849C81.0177 10.2093 80.6896 10.4437 80.2805 10.5516V10.6027C80.5959 10.6596 80.88 10.7945 81.1328 11.0076C81.3856 11.2178 81.5873 11.4806 81.7379 11.7959C81.8885 12.1084 81.9652 12.4493 81.968 12.8187C81.9652 13.2902 81.8373 13.7107 81.5845 14.08C81.3345 14.4465 80.9865 14.7349 80.5405 14.9451C80.0973 15.1525 79.5845 15.2562 79.0021 15.2562ZM79.0021 14.3187C79.397 14.3187 79.7379 14.2547 80.0248 14.1269C80.3118 13.9991 80.5334 13.8187 80.6896 13.5857C80.8459 13.3527 80.9254 13.08 80.9283 12.7675C80.9254 12.438 80.8402 12.1468 80.6726 11.8939C80.505 11.6411 80.2763 11.4422 79.9865 11.2974C79.6996 11.1525 79.3714 11.08 79.0021 11.08C78.63 11.08 78.2976 11.1525 78.005 11.2974C77.7152 11.4422 77.4865 11.6411 77.3189 11.8939C77.1541 12.1468 77.0731 12.438 77.076 12.7675C77.0731 13.08 77.1484 13.3527 77.3018 13.5857C77.4581 13.8187 77.6811 13.9991 77.9709 14.1269C78.2606 14.2547 78.6044 14.3187 79.0021 14.3187ZM79.0021 10.1766C79.3146 10.1766 79.5916 10.1141 79.8331 9.98911C80.0774 9.86411 80.2692 9.6894 80.4084 9.46497C80.5476 9.24053 80.6186 8.97775 80.6214 8.67661C80.6186 8.38116 80.549 8.12406 80.4126 7.90531C80.2763 7.68372 80.0873 7.51326 79.8459 7.39394C79.6044 7.27178 79.3231 7.2107 79.0021 7.2107C78.6754 7.2107 78.3899 7.27178 78.1456 7.39394C77.9013 7.51326 77.7123 7.68372 77.5788 7.90531C77.4453 8.12406 77.38 8.38116 77.3828 8.67661C77.38 8.97775 77.4467 9.24053 77.5831 9.46497C77.7223 9.6894 77.9141 9.86411 78.1584 9.98911C78.4027 10.1141 78.6839 10.1766 79.0021 10.1766Z" fill="black"/>
<path d="M114.807 312.475H171.47V355.575H114.807V312.475Z" fill="#2C9964"/>
<path d="M267.439 269.375H324.103V355.575H267.439V269.375Z" fill="#2C9964"/>
<path d="M420.073 312.475H476.736V355.575H420.073V312.475Z" fill="#2C9964"/>
<path d="M572.706 312.475H629.369V355.575H572.706V312.475Z" fill="#2C9964"/>
<path d="M725.34 140.075H782.003V355.575H725.34V140.075Z" fill="#2C9964"/>
<path d="M877.973 269.375H934.636V355.575H877.973V269.375Z" fill="#2C9964"/>
<path d="M177.596 312.475H234.259V355.575H177.596V312.475Z" fill="#AB3384"/>
<path d="M330.229 226.275H386.892V355.575H330.229V226.275Z" fill="#AB3384"/>
<path d="M482.862 226.275H539.525V355.575H482.862V226.275Z" fill="#AB3384"/>
<path d="M635.495 183.175H692.158V355.575H635.495V183.175Z" fill="#AB3384"/>
<path d="M788.129 269.375H844.792V355.575H788.129V269.375Z" fill="#AB3384"/>
<path d="M940.762 183.175H997.425V355.575H940.762V183.175Z" fill="#AB3384"/>
<path d="M10.3564 219.21V217.018L24.2666 211.428L10.3564 205.85V203.647L27.4189 210.585V212.296L10.3564 219.21ZM10.3564 219.924V217.991L20.7627 217.674H27.4189V219.924H10.3564ZM10.3564 204.878V202.944H27.4189V205.194H20.7627L10.3564 204.878ZM25.251 191.823H18.7236C18.2236 191.823 17.79 191.924 17.4229 192.128C17.0479 192.323 16.7588 192.62 16.5557 193.018C16.3525 193.417 16.251 193.909 16.251 194.495C16.251 195.042 16.3447 195.522 16.5322 195.936C16.7197 196.342 16.9658 196.663 17.2705 196.897C17.5752 197.124 17.9033 197.237 18.2549 197.237V199.405C17.8018 199.405 17.3525 199.288 16.9072 199.053C16.4619 198.819 16.0596 198.483 15.7002 198.046C15.333 197.6 15.0439 197.069 14.833 196.452C14.6143 195.827 14.5049 195.131 14.5049 194.366C14.5049 193.444 14.6611 192.631 14.9736 191.928C15.2861 191.217 15.7588 190.663 16.3916 190.264C17.0166 189.858 17.8018 189.655 18.7471 189.655H24.6533C25.0752 189.655 25.5244 189.62 26.001 189.549C26.4775 189.471 26.8877 189.358 27.2314 189.21H27.4189V191.471C27.1689 191.581 26.8369 191.667 26.4229 191.729C26.001 191.792 25.6104 191.823 25.251 191.823ZM19.7314 191.448L21.2549 191.424V193.616C21.2549 194.233 21.3057 194.784 21.4072 195.268C21.501 195.753 21.6455 196.159 21.8408 196.487C22.0361 196.815 22.2822 197.065 22.5791 197.237C22.8682 197.409 23.208 197.495 23.5986 197.495C23.9971 197.495 24.3604 197.405 24.6885 197.225C25.0166 197.046 25.2783 196.776 25.4736 196.417C25.6611 196.049 25.7549 195.6 25.7549 195.069C25.7549 194.405 25.6143 193.819 25.333 193.311C25.0518 192.803 24.708 192.401 24.3018 192.104C23.8955 191.799 23.501 191.635 23.1182 191.612L24.1611 190.686C24.4893 190.741 24.8525 190.889 25.251 191.131C25.6494 191.374 26.0322 191.698 26.3994 192.104C26.7588 192.503 27.0596 192.979 27.3018 193.534C27.5361 194.081 27.6533 194.698 27.6533 195.385C27.6533 196.245 27.4854 196.999 27.1494 197.647C26.8135 198.288 26.3643 198.788 25.8018 199.147C25.2314 199.499 24.5947 199.674 23.8916 199.674C23.2119 199.674 22.6143 199.542 22.0986 199.276C21.5752 199.01 21.1416 198.628 20.7979 198.128C20.4463 197.628 20.1807 197.026 20.001 196.323C19.8213 195.62 19.7314 194.835 19.7314 193.967V191.448ZM17.4463 184.077H27.4189V186.245H14.7393V184.194L17.4463 184.077ZM20.5986 184.592L20.5635 185.495C19.6963 185.487 18.8955 185.358 18.1611 185.108C17.4189 184.858 16.7744 184.506 16.2275 184.053C15.6807 183.6 15.2588 183.061 14.9619 182.436C14.6572 181.803 14.5049 181.104 14.5049 180.339C14.5049 179.714 14.5908 179.151 14.7627 178.651C14.9268 178.151 15.1924 177.725 15.5596 177.374C15.9268 177.014 16.4033 176.741 16.9893 176.553C17.5674 176.366 18.2744 176.272 19.1104 176.272H27.4189L27.4189 178.452H19.0869C18.4229 178.452 17.8916 178.549 17.4932 178.745C17.0869 178.94 16.7939 179.225 16.6143 179.6C16.4268 179.975 16.333 180.436 16.333 180.983C16.333 181.522 16.4463 182.014 16.6729 182.46C16.8994 182.897 17.2119 183.276 17.6104 183.596C18.0088 183.909 18.4658 184.155 18.9814 184.335C19.4893 184.506 20.0283 184.592 20.5986 184.592ZM24.4893 165.221H14.7393V163.042H27.4189V165.116L24.4893 165.221ZM21.8174 164.811L21.7939 163.909C22.6377 163.909 23.4189 163.999 24.1377 164.178C24.8486 164.35 25.4658 164.631 25.9893 165.022C26.5127 165.413 26.9229 165.924 27.2197 166.557C27.5088 167.19 27.6533 167.96 27.6533 168.866C27.6533 169.483 27.5635 170.049 27.3838 170.565C27.2041 171.073 26.9268 171.51 26.5518 171.878C26.1768 172.245 25.6885 172.53 25.0869 172.733C24.4854 172.928 23.7627 173.026 22.9189 173.026H14.7393V170.858H22.9424C23.5127 170.858 23.9854 170.796 24.3604 170.671C24.7275 170.538 25.0205 170.362 25.2393 170.143C25.4502 169.917 25.5986 169.667 25.6846 169.393C25.7705 169.112 25.8135 168.823 25.8135 168.526C25.8135 167.604 25.6377 166.874 25.2861 166.335C24.9268 165.796 24.4463 165.409 23.8447 165.174C23.2354 164.932 22.5596 164.811 21.8174 164.811ZM25.251 152.26H18.7236C18.2236 152.26 17.79 152.362 17.4229 152.565C17.0479 152.76 16.7588 153.057 16.5557 153.456C16.3525 153.854 16.251 154.346 16.251 154.932C16.251 155.479 16.3447 155.96 16.5322 156.374C16.7197 156.78 16.9658 157.1 17.2705 157.335C17.5752 157.561 17.9033 157.674 18.2549 157.674V159.842C17.8018 159.842 17.3525 159.725 16.9072 159.491C16.4619 159.256 16.0596 158.921 15.7002 158.483C15.333 158.038 15.0439 157.506 14.833 156.889C14.6143 156.264 14.5049 155.569 14.5049 154.803C14.5049 153.881 14.6611 153.069 14.9736 152.366C15.2861 151.655 15.7588 151.1 16.3916 150.702C17.0166 150.296 17.8018 150.092 18.7471 150.092H24.6533C25.0752 150.092 25.5244 150.057 26.001 149.987C26.4775 149.909 26.8877 149.796 27.2314 149.647H27.4189V151.909C27.1689 152.018 26.8369 152.104 26.4229 152.167C26.001 152.229 25.6104 152.26 25.251 152.26ZM19.7314 151.885L21.2549 151.862V154.053C21.2549 154.671 21.3057 155.221 21.4072 155.706C21.501 156.19 21.6455 156.596 21.8408 156.924C22.0361 157.253 22.2822 157.503 22.5791 157.674C22.8682 157.846 23.208 157.932 23.5986 157.932C23.9971 157.932 24.3604 157.842 24.6885 157.663C25.0166 157.483 25.2783 157.214 25.4736 156.854C25.6611 156.487 25.7549 156.038 25.7549 155.506C25.7549 154.842 25.6143 154.256 25.333 153.749C25.0518 153.241 24.708 152.839 24.3018 152.542C23.8955 152.237 23.501 152.073 23.1182 152.049L24.1611 151.124C24.4893 151.178 24.8525 151.327 25.251 151.569C25.6494 151.811 26.0322 152.135 26.3994 152.542C26.7588 152.94 27.0596 153.417 27.3018 153.971C27.5361 154.518 27.6533 155.135 27.6533 155.823C27.6533 156.682 27.4854 157.436 27.1494 158.085C26.8135 158.725 26.3643 159.225 25.8018 159.585C25.2314 159.936 24.5947 160.112 23.8916 160.112C23.2119 160.112 22.6143 159.979 22.0986 159.714C21.5752 159.448 21.1416 159.065 20.7979 158.565C20.4463 158.065 20.1807 157.464 20.001 156.76C19.8213 156.057 19.7314 155.272 19.7314 154.405V151.885ZM14.7393 144.327H27.4189V146.506H14.7393V144.327ZM11.376 146.671C11.0244 146.671 10.7275 146.565 10.4854 146.354C10.2432 146.135 10.1221 145.815 10.1221 145.393C10.1221 144.979 10.2432 144.663 10.4854 144.444C10.7275 144.217 11.0244 144.104 11.376 144.104C11.7119 144.104 12.001 144.217 12.2432 144.444C12.4775 144.663 12.5947 144.979 12.5947 145.393C12.5947 145.815 12.4775 146.135 12.2432 146.354C12.001 146.565 11.7119 146.671 11.376 146.671ZM24.0557 133.464C23.7432 133.464 23.4541 133.534 23.1885 133.674C22.915 133.807 22.6689 134.085 22.4502 134.506C22.2236 134.921 22.0283 135.546 21.8643 136.381C21.7158 137.085 21.54 137.721 21.3369 138.292C21.1338 138.854 20.8877 139.335 20.5986 139.733C20.3096 140.124 19.9697 140.424 19.5791 140.635C19.1885 140.846 18.7314 140.952 18.208 140.952C17.708 140.952 17.2354 140.842 16.79 140.624C16.3447 140.397 15.9502 140.081 15.6064 139.674C15.2627 139.26 14.9932 138.764 14.7979 138.186C14.6025 137.608 14.5049 136.964 14.5049 136.253C14.5049 135.237 14.6846 134.37 15.0439 133.651C15.4033 132.932 15.8838 132.381 16.4854 131.999C17.0791 131.616 17.7393 131.424 18.4658 131.424V133.592C18.1143 133.592 17.7744 133.698 17.4463 133.909C17.1104 134.112 16.833 134.413 16.6143 134.811C16.3955 135.202 16.2861 135.682 16.2861 136.253C16.2861 136.854 16.3799 137.342 16.5674 137.717C16.7471 138.085 16.9775 138.354 17.2588 138.526C17.54 138.69 17.8369 138.772 18.1494 138.772C18.3838 138.772 18.5947 138.733 18.7822 138.655C18.9619 138.569 19.1299 138.421 19.2861 138.21C19.4346 137.999 19.5752 137.702 19.708 137.319C19.8408 136.936 19.9736 136.448 20.1064 135.854C20.3408 134.815 20.6221 133.96 20.9502 133.288C21.2783 132.616 21.6807 132.116 22.1572 131.788C22.6338 131.46 23.2119 131.296 23.8916 131.296C24.4463 131.296 24.9541 131.413 25.415 131.647C25.876 131.874 26.2744 132.206 26.6104 132.643C26.9385 133.073 27.1963 133.589 27.3838 134.19C27.5635 134.784 27.6533 135.452 27.6533 136.194C27.6533 137.311 27.4541 138.256 27.0557 139.03C26.6572 139.803 26.1416 140.389 25.5088 140.788C24.876 141.186 24.208 141.385 23.5049 141.385V139.206C24.0986 139.174 24.5713 139.003 24.9229 138.69C25.2666 138.378 25.5127 137.995 25.6611 137.542C25.8018 137.089 25.8721 136.639 25.8721 136.194C25.8721 135.6 25.7939 135.104 25.6377 134.706C25.4814 134.299 25.2666 133.991 24.9932 133.78C24.7197 133.569 24.4072 133.464 24.0557 133.464Z" fill="black"/>
</svg>
