<svg width="24" height="24" viewBox="0 0 24 24" fill="none" xmlns="http://www.w3.org/2000/svg">
<path d="M11.6225 2.20484L11.9998 2.60497L12.377 2.20569C15.0807 -0.736782 19.4382 -0.734239 22.1389 2.21417C23.5699 3.77654 24.0769 5.78905 23.9899 7.71764C23.9037 9.63012 23.2347 11.496 22.2687 12.8727C19.3445 17.0376 11.9998 24 11.9998 24C11.9998 24 4.65429 17.0376 1.73081 12.8727C0.764816 11.496 0.0958203 9.63012 0.00957079 7.71764C-0.0781787 5.78905 0.429568 3.77654 1.85981 2.21332C4.56054 -0.735086 8.91877 -0.73763 11.6225 2.20484ZM11.9998 21.7747C11.9998 21.7747 18.4872 15.5329 21.0934 11.8198C21.8734 10.7076 22.4224 9.17658 22.4922 7.63202C22.5612 6.10356 22.1637 4.59884 21.0972 3.4349C18.9762 1.1189 15.5367 1.11805 13.4142 3.43066L13.4067 3.43914L11.9998 4.9303L10.5853 3.42981C8.46277 1.11721 5.02329 1.11805 2.9023 3.43405C1.83581 4.59799 1.43831 6.10271 1.50731 7.63032C1.58794 9.15407 2.07567 10.6143 2.90605 11.8181C5.51454 15.5363 11.9998 21.7747 11.9998 21.7747Z" fill="black"/>
</svg>
