<svg id="dds__icon--camera" viewbox="0 0 24 24" xmlns="http://www.w3.org/2000/svg" width="33" height="33" fill="#707070"><title>dds__icon--camera</title><path d="M16 10c-4.12 0-7.46 3.34-7.46 7.46s3.34 7.46 7.46 7.46c4.12 0 7.46-3.34 7.46-7.46v0c0-4.12-3.34-7.46-7.46-7.46v0zM16 22.76c-2.938-0-5.32-2.382-5.32-5.32s2.382-5.32 5.32-5.32c2.938 0 5.32 2.382 5.32 5.32 0 0.007 0 0.014-0 0.021v-0.001c0 0.018 0 0.039 0 0.060 0 2.927-2.373 5.3-5.3 5.3-0.007 0-0.014 0-0.021-0h0.001zM26.76 14.36c0.828 0 1.5-0.672 1.5-1.5v0c0-0.828-0.672-1.5-1.5-1.5s-1.5 0.672-1.5 1.5c0 0.828 0.672 1.5 1.5 1.5v0zM26 7.76l-4.8-5.62h-10l-5.2 5.62h-6v22.1h32v-22zM29.84 27.76h-27.7v-17.88h4.82l5.2-5.62h8l4.8 5.62h4.84v17.86z"/></svg>