<svg id="dds__icon--key" viewbox="0 0 24 24" xmlns="http://www.w3.org/2000/svg" width="32" height="32" fill="#7e7e7e"><title>dds__icon--key</title><path d="M6.9 16c-0 0.817-0.663 1.48-1.48 1.48s-1.48-0.663-1.48-1.48 0.663-1.48 1.48-1.48c0.007 0 0.014 0 0.021 0h-0.001c0.809 0.011 1.46 0.67 1.46 1.48 0 0 0 0 0 0v0zM28 11.52h-13.62c-1.458-2.136-3.882-3.52-6.628-3.52-4.418 0-8 3.582-8 8s3.582 8 8 8c2.746 0 5.17-1.384 6.61-3.492l0.018-0.028h4.38l1.52-1.72 2 2.16 2-2.2 2.2 2.12 5.52-5.44zM26.52 17.84l-2.22-2.18-2 2.16-2.1-2.2-2.4 2.74h-4.6l-0.32 0.52c-0.983 1.72-2.794 2.868-4.876 2.9l-0.005 0c-3.192 0-5.78-2.588-5.78-5.78s2.588-5.78 5.78-5.78v0c2.087 0.028 3.9 1.177 4.865 2.872l0.015 0.028 0.32 0.52h14l1.8 1.78-2.44 2.42z"/></svg>