<svg width="162" height="36" viewBox="0 0 162 36" fill="none" xmlns="http://www.w3.org/2000/svg">
<rect y="5.5" width="25" height="25" fill="#2C9964"/>
<path d="M53.2422 8.9375V26H50.9805V8.9375H53.2422ZM60.3906 16.6133V18.4648H52.75V16.6133H60.3906ZM61.5508 8.9375V10.7891H52.75V8.9375H61.5508ZM68.9219 26.2344C68.0391 26.2344 67.2383 26.0859 66.5195 25.7891C65.8086 25.4844 65.1953 25.0586 64.6797 24.5117C64.1719 23.9648 63.7812 23.3164 63.5078 22.5664C63.2344 21.8164 63.0977 20.9961 63.0977 20.1055V19.6133C63.0977 18.582 63.25 17.6641 63.5547 16.8594C63.8594 16.0469 64.2734 15.3594 64.7969 14.7969C65.3203 14.2344 65.9141 13.8086 66.5781 13.5195C67.2422 13.2305 67.9297 13.0859 68.6406 13.0859C69.5469 13.0859 70.3281 13.2422 70.9844 13.5547C71.6484 13.8672 72.1914 14.3047 72.6133 14.8672C73.0352 15.4219 73.3477 16.0781 73.5508 16.8359C73.7539 17.5859 73.8555 18.4062 73.8555 19.2969V20.2695H64.3867V18.5H71.6875V18.3359C71.6562 17.7734 71.5391 17.2266 71.3359 16.6953C71.1406 16.1641 70.8281 15.7266 70.3984 15.3828C69.9688 15.0391 69.3828 14.8672 68.6406 14.8672C68.1484 14.8672 67.6953 14.9727 67.2812 15.1836C66.8672 15.3867 66.5117 15.6914 66.2148 16.0977C65.918 16.5039 65.6875 17 65.5234 17.5859C65.3594 18.1719 65.2773 18.8477 65.2773 19.6133V20.1055C65.2773 20.707 65.3594 21.2734 65.5234 21.8047C65.6953 22.3281 65.9414 22.7891 66.2617 23.1875C66.5898 23.5859 66.9844 23.8984 67.4453 24.125C67.9141 24.3516 68.4453 24.4648 69.0391 24.4648C69.8047 24.4648 70.4531 24.3086 70.9844 23.9961C71.5156 23.6836 71.9805 23.2656 72.3789 22.7422L73.6914 23.7852C73.418 24.1992 73.0703 24.5938 72.6484 24.9688C72.2266 25.3438 71.707 25.6484 71.0898 25.8828C70.4805 26.1172 69.7578 26.2344 68.9219 26.2344ZM78.7422 13.3203V26H76.5625V13.3203H78.7422ZM76.3984 9.95703C76.3984 9.60547 76.5039 9.30859 76.7148 9.06641C76.9336 8.82422 77.2539 8.70312 77.6758 8.70312C78.0898 8.70312 78.4062 8.82422 78.625 9.06641C78.8516 9.30859 78.9648 9.60547 78.9648 9.95703C78.9648 10.293 78.8516 10.582 78.625 10.8242C78.4062 11.0586 78.0898 11.1758 77.6758 11.1758C77.2539 11.1758 76.9336 11.0586 76.7148 10.8242C76.5039 10.582 76.3984 10.293 76.3984 9.95703ZM87.5312 13.3203V14.9844H80.6758V13.3203H87.5312ZM82.9961 10.2383H85.1641V22.8594C85.1641 23.2891 85.2305 23.6133 85.3633 23.832C85.4961 24.0508 85.668 24.1953 85.8789 24.2656C86.0898 24.3359 86.3164 24.3711 86.5586 24.3711C86.7383 24.3711 86.9258 24.3555 87.1211 24.3242C87.3242 24.2852 87.4766 24.2539 87.5781 24.2305L87.5898 26C87.418 26.0547 87.1914 26.1055 86.9102 26.1523C86.6367 26.207 86.3047 26.2344 85.9141 26.2344C85.3828 26.2344 84.8945 26.1289 84.4492 25.918C84.0039 25.707 83.6484 25.3555 83.3828 24.8633C83.125 24.3633 82.9961 23.6914 82.9961 22.8477V10.2383ZM89.2656 19.8008V19.5312C89.2656 18.6172 89.3984 17.7695 89.6641 16.9883C89.9297 16.1992 90.3125 15.5156 90.8125 14.9375C91.3125 14.3516 91.918 13.8984 92.6289 13.5781C93.3398 13.25 94.1367 13.0859 95.0195 13.0859C95.9102 13.0859 96.7109 13.25 97.4219 13.5781C98.1406 13.8984 98.75 14.3516 99.25 14.9375C99.7578 15.5156 100.145 16.1992 100.41 16.9883C100.676 17.7695 100.809 18.6172 100.809 19.5312V19.8008C100.809 20.7148 100.676 21.5625 100.41 22.3438C100.145 23.125 99.7578 23.8086 99.25 24.3945C98.75 24.9727 98.1445 25.4258 97.4336 25.7539C96.7305 26.0742 95.9336 26.2344 95.043 26.2344C94.1523 26.2344 93.3516 26.0742 92.6406 25.7539C91.9297 25.4258 91.3203 24.9727 90.8125 24.3945C90.3125 23.8086 89.9297 23.125 89.6641 22.3438C89.3984 21.5625 89.2656 20.7148 89.2656 19.8008ZM91.4336 19.5312V19.8008C91.4336 20.4336 91.5078 21.0312 91.6562 21.5938C91.8047 22.1484 92.0273 22.6406 92.3242 23.0703C92.6289 23.5 93.0078 23.8398 93.4609 24.0898C93.9141 24.332 94.4414 24.4531 95.043 24.4531C95.6367 24.4531 96.1562 24.332 96.6016 24.0898C97.0547 23.8398 97.4297 23.5 97.7266 23.0703C98.0234 22.6406 98.2461 22.1484 98.3945 21.5938C98.5508 21.0312 98.6289 20.4336 98.6289 19.8008V19.5312C98.6289 18.9062 98.5508 18.3164 98.3945 17.7617C98.2461 17.1992 98.0195 16.7031 97.7148 16.2734C97.418 15.8359 97.043 15.4922 96.5898 15.2422C96.1445 14.9922 95.6211 14.8672 95.0195 14.8672C94.4258 14.8672 93.9023 14.9922 93.4492 15.2422C93.0039 15.4922 92.6289 15.8359 92.3242 16.2734C92.0273 16.7031 91.8047 17.1992 91.6562 17.7617C91.5078 18.3164 91.4336 18.9062 91.4336 19.5312ZM110.91 22.6367C110.91 22.3242 110.84 22.0352 110.699 21.7695C110.566 21.4961 110.289 21.25 109.867 21.0312C109.453 20.8047 108.828 20.6094 107.992 20.4453C107.289 20.2969 106.652 20.1211 106.082 19.918C105.52 19.7148 105.039 19.4688 104.641 19.1797C104.25 18.8906 103.949 18.5508 103.738 18.1602C103.527 17.7695 103.422 17.3125 103.422 16.7891C103.422 16.2891 103.531 15.8164 103.75 15.3711C103.977 14.9258 104.293 14.5312 104.699 14.1875C105.113 13.8438 105.609 13.5742 106.188 13.3789C106.766 13.1836 107.41 13.0859 108.121 13.0859C109.137 13.0859 110.004 13.2656 110.723 13.625C111.441 13.9844 111.992 14.4648 112.375 15.0664C112.758 15.6602 112.949 16.3203 112.949 17.0469H110.781C110.781 16.6953 110.676 16.3555 110.465 16.0273C110.262 15.6914 109.961 15.4141 109.562 15.1953C109.172 14.9766 108.691 14.8672 108.121 14.8672C107.52 14.8672 107.031 14.9609 106.656 15.1484C106.289 15.3281 106.02 15.5586 105.848 15.8398C105.684 16.1211 105.602 16.418 105.602 16.7305C105.602 16.9648 105.641 17.1758 105.719 17.3633C105.805 17.543 105.953 17.7109 106.164 17.8672C106.375 18.0156 106.672 18.1562 107.055 18.2891C107.438 18.4219 107.926 18.5547 108.52 18.6875C109.559 18.9219 110.414 19.2031 111.086 19.5312C111.758 19.8594 112.258 20.2617 112.586 20.7383C112.914 21.2148 113.078 21.793 113.078 22.4727C113.078 23.0273 112.961 23.5352 112.727 23.9961C112.5 24.457 112.168 24.8555 111.73 25.1914C111.301 25.5195 110.785 25.7773 110.184 25.9648C109.59 26.1445 108.922 26.2344 108.18 26.2344C107.062 26.2344 106.117 26.0352 105.344 25.6367C104.57 25.2383 103.984 24.7227 103.586 24.0898C103.188 23.457 102.988 22.7891 102.988 22.0859H105.168C105.199 22.6797 105.371 23.1523 105.684 23.5039C105.996 23.8477 106.379 24.0938 106.832 24.2422C107.285 24.3828 107.734 24.4531 108.18 24.4531C108.773 24.4531 109.27 24.375 109.668 24.2188C110.074 24.0625 110.383 23.8477 110.594 23.5742C110.805 23.3008 110.91 22.9883 110.91 22.6367Z" fill="black"/>
</svg>
