<svg width="163" height="36" viewBox="0 0 163 36" fill="none" xmlns="http://www.w3.org/2000/svg">
<rect y="5.5" width="25" height="25" fill="#AB3384"/>
<path d="M57.2734 19.3086H52.7148V17.4688H57.2734C58.1562 17.4688 58.8711 17.3281 59.418 17.0469C59.9648 16.7656 60.3633 16.375 60.6133 15.875C60.8711 15.375 61 14.8047 61 14.1641C61 13.5781 60.8711 13.0273 60.6133 12.5117C60.3633 11.9961 59.9648 11.582 59.418 11.2695C58.8711 10.9492 58.1562 10.7891 57.2734 10.7891H53.2422V26H50.9805V8.9375H57.2734C58.5625 8.9375 59.6523 9.16016 60.543 9.60547C61.4336 10.0508 62.1094 10.668 62.5703 11.457C63.0312 12.2383 63.2617 13.1328 63.2617 14.1406C63.2617 15.2344 63.0312 16.168 62.5703 16.9414C62.1094 17.7148 61.4336 18.3047 60.543 18.7109C59.6523 19.1094 58.5625 19.3086 57.2734 19.3086ZM70.8906 26.2344C70.0078 26.2344 69.207 26.0859 68.4883 25.7891C67.7773 25.4844 67.1641 25.0586 66.6484 24.5117C66.1406 23.9648 65.75 23.3164 65.4766 22.5664C65.2031 21.8164 65.0664 20.9961 65.0664 20.1055V19.6133C65.0664 18.582 65.2188 17.6641 65.5234 16.8594C65.8281 16.0469 66.2422 15.3594 66.7656 14.7969C67.2891 14.2344 67.8828 13.8086 68.5469 13.5195C69.2109 13.2305 69.8984 13.0859 70.6094 13.0859C71.5156 13.0859 72.2969 13.2422 72.9531 13.5547C73.6172 13.8672 74.1602 14.3047 74.582 14.8672C75.0039 15.4219 75.3164 16.0781 75.5195 16.8359C75.7227 17.5859 75.8242 18.4062 75.8242 19.2969V20.2695H66.3555V18.5H73.6562V18.3359C73.625 17.7734 73.5078 17.2266 73.3047 16.6953C73.1094 16.1641 72.7969 15.7266 72.3672 15.3828C71.9375 15.0391 71.3516 14.8672 70.6094 14.8672C70.1172 14.8672 69.6641 14.9727 69.25 15.1836C68.8359 15.3867 68.4805 15.6914 68.1836 16.0977C67.8867 16.5039 67.6562 17 67.4922 17.5859C67.3281 18.1719 67.2461 18.8477 67.2461 19.6133V20.1055C67.2461 20.707 67.3281 21.2734 67.4922 21.8047C67.6641 22.3281 67.9102 22.7891 68.2305 23.1875C68.5586 23.5859 68.9531 23.8984 69.4141 24.125C69.8828 24.3516 70.4141 24.4648 71.0078 24.4648C71.7734 24.4648 72.4219 24.3086 72.9531 23.9961C73.4844 23.6836 73.9492 23.2656 74.3477 22.7422L75.6602 23.7852C75.3867 24.1992 75.0391 24.5938 74.6172 24.9688C74.1953 25.3438 73.6758 25.6484 73.0586 25.8828C72.4492 26.1172 71.7266 26.2344 70.8906 26.2344ZM80.5234 16.0273V26H78.3555V13.3203H80.4062L80.5234 16.0273ZM80.0078 19.1797L79.1055 19.1445C79.1133 18.2773 79.2422 17.4766 79.4922 16.7422C79.7422 16 80.0938 15.3555 80.5469 14.8086C81 14.2617 81.5391 13.8398 82.1641 13.543C82.7969 13.2383 83.4961 13.0859 84.2617 13.0859C84.8867 13.0859 85.4492 13.1719 85.9492 13.3438C86.4492 13.5078 86.875 13.7734 87.2266 14.1406C87.5859 14.5078 87.8594 14.9844 88.0469 15.5703C88.2344 16.1484 88.3281 16.8555 88.3281 17.6914V26H86.1484V17.668C86.1484 17.0039 86.0508 16.4727 85.8555 16.0742C85.6602 15.668 85.375 15.375 85 15.1953C84.625 15.0078 84.1641 14.9141 83.6172 14.9141C83.0781 14.9141 82.5859 15.0273 82.1406 15.2539C81.7031 15.4805 81.3242 15.793 81.0039 16.1914C80.6914 16.5898 80.4453 17.0469 80.2656 17.5625C80.0938 18.0703 80.0078 18.6094 80.0078 19.1797ZM99.6133 23.5391V8H101.793V26H99.8008L99.6133 23.5391ZM91.082 19.8008V19.5547C91.082 18.5859 91.1992 17.707 91.4336 16.918C91.6758 16.1211 92.0156 15.4375 92.4531 14.8672C92.8984 14.2969 93.4258 13.8594 94.0352 13.5547C94.6523 13.2422 95.3398 13.0859 96.0977 13.0859C96.8945 13.0859 97.5898 13.2266 98.1836 13.5078C98.7852 13.7812 99.293 14.1836 99.707 14.7148C100.129 15.2383 100.461 15.8711 100.703 16.6133C100.945 17.3555 101.113 18.1953 101.207 19.1328V20.2109C101.121 21.1406 100.953 21.9766 100.703 22.7188C100.461 23.4609 100.129 24.0938 99.707 24.6172C99.293 25.1406 98.7852 25.543 98.1836 25.8242C97.582 26.0977 96.8789 26.2344 96.0742 26.2344C95.332 26.2344 94.6523 26.0742 94.0352 25.7539C93.4258 25.4336 92.8984 24.9844 92.4531 24.4062C92.0156 23.8281 91.6758 23.1484 91.4336 22.3672C91.1992 21.5781 91.082 20.7227 91.082 19.8008ZM93.2617 19.5547V19.8008C93.2617 20.4336 93.3242 21.0273 93.4492 21.582C93.582 22.1367 93.7852 22.625 94.0586 23.0469C94.332 23.4688 94.6797 23.8008 95.1016 24.043C95.5234 24.2773 96.0273 24.3945 96.6133 24.3945C97.332 24.3945 97.9219 24.2422 98.3828 23.9375C98.8516 23.6328 99.2266 23.2305 99.5078 22.7305C99.7891 22.2305 100.008 21.6875 100.164 21.1016V18.2773C100.07 17.8477 99.9336 17.4336 99.7539 17.0352C99.582 16.6289 99.3555 16.2695 99.0742 15.957C98.8008 15.6367 98.4609 15.3828 98.0547 15.1953C97.6562 15.0078 97.1836 14.9141 96.6367 14.9141C96.043 14.9141 95.5312 15.0391 95.1016 15.2891C94.6797 15.5312 94.332 15.8672 94.0586 16.2969C93.7852 16.7188 93.582 17.2109 93.4492 17.7734C93.3242 18.3281 93.2617 18.9219 93.2617 19.5547ZM110.43 26.2344C109.547 26.2344 108.746 26.0859 108.027 25.7891C107.316 25.4844 106.703 25.0586 106.188 24.5117C105.68 23.9648 105.289 23.3164 105.016 22.5664C104.742 21.8164 104.605 20.9961 104.605 20.1055V19.6133C104.605 18.582 104.758 17.6641 105.062 16.8594C105.367 16.0469 105.781 15.3594 106.305 14.7969C106.828 14.2344 107.422 13.8086 108.086 13.5195C108.75 13.2305 109.438 13.0859 110.148 13.0859C111.055 13.0859 111.836 13.2422 112.492 13.5547C113.156 13.8672 113.699 14.3047 114.121 14.8672C114.543 15.4219 114.855 16.0781 115.059 16.8359C115.262 17.5859 115.363 18.4062 115.363 19.2969V20.2695H105.895V18.5H113.195V18.3359C113.164 17.7734 113.047 17.2266 112.844 16.6953C112.648 16.1641 112.336 15.7266 111.906 15.3828C111.477 15.0391 110.891 14.8672 110.148 14.8672C109.656 14.8672 109.203 14.9727 108.789 15.1836C108.375 15.3867 108.02 15.6914 107.723 16.0977C107.426 16.5039 107.195 17 107.031 17.5859C106.867 18.1719 106.785 18.8477 106.785 19.6133V20.1055C106.785 20.707 106.867 21.2734 107.031 21.8047C107.203 22.3281 107.449 22.7891 107.77 23.1875C108.098 23.5859 108.492 23.8984 108.953 24.125C109.422 24.3516 109.953 24.4648 110.547 24.4648C111.312 24.4648 111.961 24.3086 112.492 23.9961C113.023 23.6836 113.488 23.2656 113.887 22.7422L115.199 23.7852C114.926 24.1992 114.578 24.5938 114.156 24.9688C113.734 25.3438 113.215 25.6484 112.598 25.8828C111.988 26.1172 111.266 26.2344 110.43 26.2344ZM120.062 16.0273V26H117.895V13.3203H119.945L120.062 16.0273ZM119.547 19.1797L118.645 19.1445C118.652 18.2773 118.781 17.4766 119.031 16.7422C119.281 16 119.633 15.3555 120.086 14.8086C120.539 14.2617 121.078 13.8398 121.703 13.543C122.336 13.2383 123.035 13.0859 123.801 13.0859C124.426 13.0859 124.988 13.1719 125.488 13.3438C125.988 13.5078 126.414 13.7734 126.766 14.1406C127.125 14.5078 127.398 14.9844 127.586 15.5703C127.773 16.1484 127.867 16.8555 127.867 17.6914V26H125.688V17.668C125.688 17.0039 125.59 16.4727 125.395 16.0742C125.199 15.668 124.914 15.375 124.539 15.1953C124.164 15.0078 123.703 14.9141 123.156 14.9141C122.617 14.9141 122.125 15.0273 121.68 15.2539C121.242 15.4805 120.863 15.793 120.543 16.1914C120.23 16.5898 119.984 17.0469 119.805 17.5625C119.633 18.0703 119.547 18.6094 119.547 19.1797ZM136.469 13.3203V14.9844H129.613V13.3203H136.469ZM131.934 10.2383H134.102V22.8594C134.102 23.2891 134.168 23.6133 134.301 23.832C134.434 24.0508 134.605 24.1953 134.816 24.2656C135.027 24.3359 135.254 24.3711 135.496 24.3711C135.676 24.3711 135.863 24.3555 136.059 24.3242C136.262 24.2852 136.414 24.2539 136.516 24.2305L136.527 26C136.355 26.0547 136.129 26.1055 135.848 26.1523C135.574 26.207 135.242 26.2344 134.852 26.2344C134.32 26.2344 133.832 26.1289 133.387 25.918C132.941 25.707 132.586 25.3555 132.32 24.8633C132.062 24.3633 131.934 23.6914 131.934 22.8477V10.2383ZM144.273 26.2344C143.391 26.2344 142.59 26.0859 141.871 25.7891C141.16 25.4844 140.547 25.0586 140.031 24.5117C139.523 23.9648 139.133 23.3164 138.859 22.5664C138.586 21.8164 138.449 20.9961 138.449 20.1055V19.6133C138.449 18.582 138.602 17.6641 138.906 16.8594C139.211 16.0469 139.625 15.3594 140.148 14.7969C140.672 14.2344 141.266 13.8086 141.93 13.5195C142.594 13.2305 143.281 13.0859 143.992 13.0859C144.898 13.0859 145.68 13.2422 146.336 13.5547C147 13.8672 147.543 14.3047 147.965 14.8672C148.387 15.4219 148.699 16.0781 148.902 16.8359C149.105 17.5859 149.207 18.4062 149.207 19.2969V20.2695H139.738V18.5H147.039V18.3359C147.008 17.7734 146.891 17.2266 146.688 16.6953C146.492 16.1641 146.18 15.7266 145.75 15.3828C145.32 15.0391 144.734 14.8672 143.992 14.8672C143.5 14.8672 143.047 14.9727 142.633 15.1836C142.219 15.3867 141.863 15.6914 141.566 16.0977C141.27 16.5039 141.039 17 140.875 17.5859C140.711 18.1719 140.629 18.8477 140.629 19.6133V20.1055C140.629 20.707 140.711 21.2734 140.875 21.8047C141.047 22.3281 141.293 22.7891 141.613 23.1875C141.941 23.5859 142.336 23.8984 142.797 24.125C143.266 24.3516 143.797 24.4648 144.391 24.4648C145.156 24.4648 145.805 24.3086 146.336 23.9961C146.867 23.6836 147.332 23.2656 147.73 22.7422L149.043 23.7852C148.77 24.1992 148.422 24.5938 148 24.9688C147.578 25.3438 147.059 25.6484 146.441 25.8828C145.832 26.1172 145.109 26.2344 144.273 26.2344ZM159.121 22.6367C159.121 22.3242 159.051 22.0352 158.91 21.7695C158.777 21.4961 158.5 21.25 158.078 21.0312C157.664 20.8047 157.039 20.6094 156.203 20.4453C155.5 20.2969 154.863 20.1211 154.293 19.918C153.73 19.7148 153.25 19.4688 152.852 19.1797C152.461 18.8906 152.16 18.5508 151.949 18.1602C151.738 17.7695 151.633 17.3125 151.633 16.7891C151.633 16.2891 151.742 15.8164 151.961 15.3711C152.188 14.9258 152.504 14.5312 152.91 14.1875C153.324 13.8438 153.82 13.5742 154.398 13.3789C154.977 13.1836 155.621 13.0859 156.332 13.0859C157.348 13.0859 158.215 13.2656 158.934 13.625C159.652 13.9844 160.203 14.4648 160.586 15.0664C160.969 15.6602 161.16 16.3203 161.16 17.0469H158.992C158.992 16.6953 158.887 16.3555 158.676 16.0273C158.473 15.6914 158.172 15.4141 157.773 15.1953C157.383 14.9766 156.902 14.8672 156.332 14.8672C155.73 14.8672 155.242 14.9609 154.867 15.1484C154.5 15.3281 154.23 15.5586 154.059 15.8398C153.895 16.1211 153.812 16.418 153.812 16.7305C153.812 16.9648 153.852 17.1758 153.93 17.3633C154.016 17.543 154.164 17.7109 154.375 17.8672C154.586 18.0156 154.883 18.1562 155.266 18.2891C155.648 18.4219 156.137 18.5547 156.73 18.6875C157.77 18.9219 158.625 19.2031 159.297 19.5312C159.969 19.8594 160.469 20.2617 160.797 20.7383C161.125 21.2148 161.289 21.793 161.289 22.4727C161.289 23.0273 161.172 23.5352 160.938 23.9961C160.711 24.457 160.379 24.8555 159.941 25.1914C159.512 25.5195 158.996 25.7773 158.395 25.9648C157.801 26.1445 157.133 26.2344 156.391 26.2344C155.273 26.2344 154.328 26.0352 153.555 25.6367C152.781 25.2383 152.195 24.7227 151.797 24.0898C151.398 23.457 151.199 22.7891 151.199 22.0859H153.379C153.41 22.6797 153.582 23.1523 153.895 23.5039C154.207 23.8477 154.59 24.0938 155.043 24.2422C155.496 24.3828 155.945 24.4531 156.391 24.4531C156.984 24.4531 157.48 24.375 157.879 24.2188C158.285 24.0625 158.594 23.8477 158.805 23.5742C159.016 23.3008 159.121 22.9883 159.121 22.6367Z" fill="black"/>
</svg>
