<svg width="25" height="24" viewBox="0 0 25 24" fill="none" xmlns="http://www.w3.org/2000/svg">
<path d="M24.0007 22.8907L16.0507 15.0007C17.3407 13.401 18.1215 11.343 18.1215 9.10275C18.1215 9.06675 18.1215 9.03075 18.1207 8.9955V9.00075V9C18.1207 4.02975 14.091 0 9.12075 0C9.07875 0 9.03675 0 8.99475 0.00075H9.00075C4.01925 0.051 0 4.101 0 9.09C0 9.13725 0.00075 9.18525 0.00075 9.2325V9.225C0.00075 14.1953 4.0305 18.225 9.00075 18.225C9.07275 18.2272 9.1575 18.228 9.24225 18.228C11.4547 18.228 13.4745 17.4022 15.0097 16.0417L15.0007 16.05L22.9507 24L24.0607 22.89L24.0007 22.8907ZM9.00075 16.6957C4.8585 16.6957 1.50075 13.338 1.50075 9.19575C1.50075 9.19125 1.50075 9.186 1.50075 9.18C1.50075 5.01975 4.848 1.641 8.99625 1.59075H9.00075C13.143 1.59075 16.5007 4.9485 16.5007 9.09075C16.4925 13.251 13.152 16.6282 9.00675 16.6957H9.00075Z" fill="black"/>
</svg>
