<svg width="24" height="24" viewBox="0 0 24 24" fill="none" xmlns="http://www.w3.org/2000/svg">
<path d="M12.6 11.85C12.6502 10.1348 13.5495 8.64075 14.8905 7.767L14.91 7.755C16.4437 6.699 18.342 6.06825 20.3873 6.06825C20.5185 6.06825 20.649 6.0705 20.7787 6.07575L20.76 6.075L17.37 9.48L18.63 10.74L24 5.37L18.63 0L17.37 1.26L20.37 4.26C17.9392 4.26675 15.6885 5.0295 13.8383 6.32475L13.875 6.3C12.063 7.50825 10.8833 9.54 10.875 11.8485V11.85H12.6ZM22.365 22.395H1.635V1.605H12V0H0V24H24V11.91H22.365V22.395Z" fill="#0672CB"/>
</svg>
