<svg width="38" height="36" viewBox="0 0 38 36" fill="none" xmlns="http://www.w3.org/2000/svg">
<rect width="38" height="36" fill="#0672CB"/>
<path d="M7.9005 22.3279C8.3677 20.233 9.4768 18.4482 11.0076 17.1417L11.0206 17.1312C12.3507 18.0544 13.9993 18.6057 15.7771 18.6057C17.0715 18.6057 18.2968 18.3134 19.392 17.7913L19.3417 17.8132C20.0868 17.1304 20.944 16.5538 21.88 16.1178L21.9417 16.0918C21.6005 15.9132 21.2592 15.5721 20.9017 15.3935L20.3817 15.0525L19.8617 15.3935C18.7258 16.2826 17.2762 16.8202 15.7016 16.8202C14.1269 16.8202 12.6773 16.2834 11.5268 15.3829L11.5414 15.3943L11.2002 15.0533L10.5014 15.3943C6.69877 17.8141 6.17876 22.8646 6 23.0108V24.0502H16.5791C16.575 23.9649 16.5726 23.865 16.5726 23.7651C16.5726 23.2552 16.6343 22.7607 16.7505 22.2865L16.7416 22.3287L7.9005 22.3279ZM25.061 17.1312C21.2292 17.1312 18.1221 20.2362 18.1221 24.0656C18.1221 27.8949 21.2284 31 25.061 31C28.8929 31 32 27.8958 32 24.0656C32 24.0599 32 24.0542 32 24.0485C31.9813 20.2297 28.884 17.1401 25.0618 17.1312H25.061ZM25.061 29.2461C22.1888 29.2461 19.8609 26.9197 19.8609 24.0493C19.8609 21.1789 22.1888 18.8526 25.061 18.8526C27.9333 18.8526 30.2612 21.1789 30.2612 24.0493C30.262 24.0834 30.2628 24.124 30.2628 24.1646C30.2628 26.9717 27.9853 29.2477 25.1764 29.2477C25.1358 29.2477 25.096 29.2469 25.0553 29.2461H25.061ZM25.9386 20.4116H24.1998V23.1886H21.4209V24.9263H24.1998V27.7358H25.9386V24.975H28.7499V23.1886H25.9873L25.9386 20.4116ZM15.7495 15.9457C18.7672 15.9367 21.2097 13.4894 21.2097 10.4728C21.2097 7.45059 18.7575 5 15.7332 5C12.709 5 10.2568 7.45059 10.2568 10.4728C10.2755 13.4934 12.7253 15.9367 15.7487 15.9457H15.7495ZM15.7495 6.73766C17.8068 6.7466 19.4709 8.41524 19.4709 10.4728C19.4709 12.5353 17.7979 14.208 15.7332 14.208C13.6686 14.208 11.9956 12.5361 11.9956 10.4728C12.0046 8.40793 13.6816 6.73766 15.7495 6.73766Z" fill="white"/>
</svg>