<svg width="70px" height="70px" viewBox="0 0 32 32" fill="none" xmlns="http://www.w3.org/2000/svg">
<path d="M32 32H0L0.22 30.92C0.22 30.5 1.26 22.12 7.58 17.82L8.22 17.4L8.84 17.82C10.764 19.529 13.312 20.573 16.104 20.573C18.799 20.573 21.267 19.6 23.176 17.986L23.16 17.999L23.78 17.579L24.42 17.999C30.94 22.299 31.78 30.679 31.78 31.099L32 32ZM2.32 29.86H29.48C28.701 25.893 26.66 22.496 23.802 20.018L23.78 20C21.596 21.602 18.855 22.564 15.89 22.564C12.925 22.564 10.184 21.602 7.962 19.973L8 19.999C5.203 22.553 3.191 25.925 2.343 29.735L2.32 29.859V29.86ZM16 0C11.018 0 6.98 4.038 6.98 9.02C6.98 14.002 11.018 18.04 16 18.04C20.982 18.04 25.02 14.002 25.02 9.02C25.02 4.038 20.982 0 16 0ZM16 15.88C15.994 15.88 15.987 15.88 15.98 15.88C12.18 15.88 9.1 12.8 9.1 9C9.1 5.2 12.18 2.12 15.98 2.12C19.78 2.12 22.86 5.2 22.86 9C22.86 9.007 22.86 9.014 22.86 9.021C22.849 12.805 19.783 15.869 16 15.88Z" fill="#0063B8"/>
</svg>
