<svg id="dds__icon--movie-clapper-play" viewbox="0 0 24 24" xmlns="http://www.w3.org/2000/svg" width="33" height="33" fill="#707070"><title>dds__icon--movie-clapper-play</title><path d="M6.46 13.26l25.060-7.26-1.76-6-29.76 8.54 1.6 5.6v17.86h30.4v-18.74zM18.72 7.66l-3.26 0.94-2.96-1.56 3.24-0.94zM18.54 5.3l3.24-0.92 2.94 1.62-3.2 0.92zM12.68 9.4l-3.36 0.96-2.82-1.6 3.22-0.92 2.96 1.56zM29.040 4.7l-1.56 0.44-2.92-1.56 3.84-1.1 0.64 2.22zM3.82 9.54l2.8 1.6-3.52 1-0.64-2.14 1.36-0.38zM30 30h-26.4v-14.72h26.4zM12.2 16.24v12.7l11.12-6.46-11.12-6.24zM14.62 20.12l4.36 2.36-4.36 2.36v-4.72z"/></svg>